<?xml version="1.0" encoding="UTF-8"?>
<svg id="Layer_2" data-name="Layer 2" xmlns="http://www.w3.org/2000/svg" xmlns:xlink="http://www.w3.org/1999/xlink" viewBox="0 0 1414.784 402.725">
  <defs>
    <style>
      .cls-1 {
        fill: none;
      }

      .cls-2 {
        clip-path: url(#clippath);
      }

      .cls-3 {
        fill: #00a9d1;
      }

      .cls-4 {
        fill: #00afd7;
      }

      .cls-5 {
        fill: #00a5cd;
      }

      .cls-6 {
        fill: #006dac;
      }

      .cls-7 {
        fill: #006db6;
      }

      .cls-8 {
        fill: #006db0;
      }

      .cls-9 {
        fill: #694888;
      }

      .cls-10 {
        fill: #69488e;
      }

      .cls-11 {
        fill: #ed6c3e;
      }

      .cls-12 {
        fill: #ea9036;
      }

      .cls-13 {
        fill: #fff;
      }

      .cls-14 {
        fill: #f36c3e;
      }

      .cls-15 {
        fill: #ffc700;
      }

      .cls-16 {
        fill: #ffcd00;
      }

      .cls-17 {
        fill: #ffc300;
      }

      .cls-18 {
        fill: #80b642;
      }

      .cls-19 {
        fill: #ab2028;
      }

      .cls-20 {
        fill: #b1c640;
      }

      .cls-21 {
        fill: #a63250;
      }

      .cls-22 {
        fill: #b0388f;
      }

      .cls-23 {
        fill: #b12028;
      }

      .cls-24 {
        fill: #cd373a;
      }

      .cls-25 {
        fill: #daa864;
      }

      .cls-26 {
        fill: #e25e80;
      }

      .cls-27 {
        fill: #70c4c8;
      }

      .cls-28 {
        fill: #459497;
      }
    </style>
    <clipPath id="clippath">
      <circle class="cls-1" cx="1279.912" cy="160.554" r="132.872"/>
    </clipPath>
  </defs>
  <g id="Layer_1-2" data-name="Layer 1">
    <g>
      <path d="m13.024,359.125c-2.816,0-5.195-.437-7.136-1.312-1.941-.875-3.408-2.16-4.4-3.856-.992-1.696-1.488-3.76-1.488-6.192,0-3.626,1.12-6.426,3.36-8.4,2.24-1.973,5.429-2.96,9.568-2.96,2.432,0,4.57.304,6.416.912,1.845.608,3.285,1.531,4.32,2.768s1.552,2.795,1.552,4.672h-2.816c0-1.429-.395-2.581-1.184-3.456-.79-.875-1.904-1.509-3.344-1.904-1.44-.394-3.109-.592-5.008-.592-1.92,0-3.632.304-5.136.912-1.504.608-2.683,1.547-3.536,2.816-.854,1.27-1.28,2.875-1.28,4.816v.768c0,2.027.432,3.669,1.296,4.928.864,1.259,2.059,2.181,3.584,2.768,1.525.587,3.269.88,5.232.88,1.92,0,3.584-.203,4.992-.608,1.408-.405,2.501-1.045,3.28-1.92.778-.875,1.168-1.994,1.168-3.36h2.784c0,1.877-.523,3.43-1.568,4.656-1.045,1.227-2.485,2.144-4.32,2.752-1.835.608-3.947.912-6.336.912Z"/>
      <path d="m30.368,358.741v-23.136h2.528v8.992h.224c.619-.832,1.323-1.472,2.112-1.92.789-.448,1.6-.752,2.432-.912.832-.16,1.632-.24,2.4-.24,1.493,0,2.741.213,3.744.64,1.003.427,1.765,1.099,2.288,2.016.522.917.784,2.134.784,3.648v10.912h-2.528v-10.432c0-1.002-.123-1.808-.368-2.416-.246-.608-.598-1.072-1.056-1.392-.459-.32-.992-.533-1.6-.64-.608-.106-1.264-.16-1.968-.16-1.067,0-2.091.229-3.072.688-.982.459-1.792,1.104-2.432,1.936-.64.832-.96,1.813-.96,2.944v9.472h-2.528Z"/>
      <path d="m57.855,359.125c-.939,0-1.819-.085-2.64-.256-.822-.17-1.542-.437-2.16-.8-.619-.363-1.104-.843-1.456-1.44s-.528-1.333-.528-2.208c0-1.387.389-2.458,1.168-3.216.778-.757,1.861-1.301,3.248-1.632,1.386-.331,2.992-.533,4.816-.608,1.824-.075,3.771-.112,5.84-.112v-1.12c0-1.088-.182-1.925-.544-2.512-.363-.586-.987-1.002-1.872-1.248-.885-.245-2.096-.368-3.632-.368-1.302,0-2.374.118-3.216.352-.843.235-1.467.55-1.872.944-.406.395-.608.859-.608,1.392v.64h-2.464c-.021-.085-.038-.181-.048-.288-.011-.106-.016-.224-.016-.352,0-1.024.32-1.888.96-2.592s1.6-1.243,2.88-1.616c1.28-.373,2.869-.56,4.768-.56,1.813,0,3.328.181,4.544.544,1.216.363,2.128.96,2.736,1.792.608.832.912,1.984.912,3.456v8.448c0,.448.08.768.24.96s.453.288.88.288h1.568v1.664c-.363.128-.763.229-1.2.304-.438.074-.837.112-1.2.112-.79,0-1.371-.139-1.744-.416-.374-.277-.63-.645-.768-1.104-.139-.458-.219-.976-.24-1.552h-.224c-.597.683-1.333,1.254-2.208,1.712-.875.459-1.824.805-2.848,1.04-1.024.234-2.048.352-3.072.352Zm.352-2.112c.938,0,1.877-.117,2.816-.352.938-.234,1.792-.56,2.56-.976s1.387-.917,1.856-1.504c.469-.586.704-1.232.704-1.936v-1.536c-2.752,0-5.056.086-6.912.256-1.856.171-3.248.512-4.176,1.024-.928.512-1.392,1.301-1.392,2.368,0,.683.224,1.216.672,1.6.448.384,1.024.656,1.728.816.704.16,1.418.24,2.144.24Z"/>
      <path d="m73.983,358.741v-16.832h2.016l.224,3.2h.192c.128-.469.378-.981.752-1.536.373-.555.896-1.035,1.568-1.44.672-.405,1.499-.608,2.48-.608.341,0,.688.016,1.04.048.352.032.656.091.912.176v2.208h-1.472c-1.024,0-1.867.192-2.528.576-.662.384-1.184.891-1.568,1.52-.384.629-.662,1.296-.832,2-.171.704-.256,1.376-.256,2.016v8.672h-2.528Z"/>
      <path d="m91.999,359.125c-.939,0-1.819-.085-2.64-.256-.822-.17-1.542-.437-2.16-.8-.619-.363-1.104-.843-1.456-1.44s-.528-1.333-.528-2.208c0-1.387.389-2.458,1.168-3.216.778-.757,1.861-1.301,3.248-1.632,1.386-.331,2.992-.533,4.816-.608,1.824-.075,3.771-.112,5.84-.112v-1.12c0-1.088-.182-1.925-.544-2.512-.363-.586-.987-1.002-1.872-1.248-.885-.245-2.096-.368-3.632-.368-1.302,0-2.374.118-3.216.352-.843.235-1.467.55-1.872.944-.406.395-.608.859-.608,1.392v.64h-2.464c-.021-.085-.038-.181-.048-.288-.011-.106-.016-.224-.016-.352,0-1.024.32-1.888.96-2.592s1.6-1.243,2.88-1.616c1.28-.373,2.869-.56,4.768-.56,1.813,0,3.328.181,4.544.544,1.216.363,2.128.96,2.736,1.792.608.832.912,1.984.912,3.456v8.448c0,.448.08.768.24.96s.453.288.88.288h1.568v1.664c-.363.128-.763.229-1.2.304-.438.074-.837.112-1.2.112-.79,0-1.371-.139-1.744-.416-.374-.277-.63-.645-.768-1.104-.139-.458-.219-.976-.24-1.552h-.224c-.597.683-1.333,1.254-2.208,1.712-.875.459-1.824.805-2.848,1.04-1.024.234-2.048.352-3.072.352Zm.352-2.112c.938,0,1.877-.117,2.816-.352.938-.234,1.792-.56,2.56-.976s1.387-.917,1.856-1.504c.469-.586.704-1.232.704-1.936v-1.536c-2.752,0-5.056.086-6.912.256-1.856.171-3.248.512-4.176,1.024-.928.512-1.392,1.301-1.392,2.368,0,.683.224,1.216.672,1.6.448.384,1.024.656,1.728.816.704.16,1.418.24,2.144.24Z"/>
      <path d="m116.863,359.125c-2.091,0-3.824-.331-5.2-.992s-2.411-1.648-3.104-2.96c-.693-1.312-1.04-2.928-1.04-4.848,0-1.941.347-3.562,1.04-4.864.693-1.301,1.733-2.283,3.12-2.944,1.386-.661,3.114-.992,5.184-.992,1.194,0,2.304.139,3.328.416,1.024.277,1.915.699,2.672,1.264.757.565,1.344,1.264,1.76,2.096s.624,1.803.624,2.912h-2.528c0-1.088-.283-1.968-.848-2.64-.565-.672-1.296-1.168-2.192-1.488-.896-.32-1.835-.48-2.816-.48-1.302,0-2.454.219-3.456.656-1.003.438-1.787,1.115-2.352,2.032-.565.918-.848,2.155-.848,3.712v.64c0,1.515.283,2.742.848,3.68.565.939,1.354,1.622,2.368,2.048,1.013.427,2.181.64,3.504.64.96,0,1.888-.16,2.784-.48s1.632-.821,2.208-1.504c.576-.683.864-1.546.864-2.592h2.464c0,1.11-.213,2.08-.64,2.912s-1.019,1.531-1.776,2.096c-.757.565-1.643.987-2.656,1.264-1.014.277-2.118.416-3.312.416Z"/>
      <path d="m134.719,359.125c-.832,0-1.525-.133-2.08-.4-.555-.267-.971-.688-1.248-1.264-.278-.576-.416-1.333-.416-2.272v-11.2h-3.136v-2.08h3.168l.544-4.768h1.952v4.768h4.448v2.08h-4.448v10.592c0,.832.112,1.446.336,1.84.224.395.805.592,1.744.592h2.368v1.6c-.299.107-.64.203-1.024.288-.384.085-.768.144-1.152.176-.384.032-.736.048-1.056.048Z"/>
      <path d="m150.847,359.125c-2.005,0-3.712-.32-5.12-.96-1.408-.64-2.48-1.61-3.216-2.912s-1.104-2.944-1.104-4.928c0-1.941.363-3.568,1.088-4.88s1.787-2.293,3.184-2.944c1.397-.65,3.109-.976,5.136-.976,2.112,0,3.84.341,5.184,1.024,1.344.683,2.341,1.622,2.992,2.816.65,1.195.976,2.549.976,4.064v1.6h-15.872c.021,1.451.336,2.619.944,3.504.608.886,1.429,1.52,2.464,1.904,1.034.384,2.213.576,3.536.576,1.003,0,1.877-.123,2.624-.368.747-.245,1.381-.565,1.904-.96.522-.395.928-.821,1.216-1.28.288-.458.442-.901.464-1.328h2.528c-.021.683-.198,1.381-.528,2.096s-.848,1.365-1.552,1.952c-.704.587-1.622,1.067-2.752,1.44-1.131.373-2.496.56-4.096.56Zm-6.752-10.048h13.216c0-1.066-.187-1.952-.56-2.656-.374-.704-.87-1.259-1.488-1.664s-1.328-.699-2.128-.88c-.8-.181-1.616-.272-2.448-.272-1.195,0-2.278.192-3.248.576-.971.384-1.744.976-2.32,1.776-.576.8-.917,1.84-1.024,3.12Z"/>
      <path d="m164.415,358.741v-16.832h2.016l.224,3.2h.192c.128-.469.378-.981.752-1.536.373-.555.896-1.035,1.568-1.44.672-.405,1.499-.608,2.48-.608.341,0,.688.016,1.04.048.352.032.656.091.912.176v2.208h-1.472c-1.024,0-1.867.192-2.528.576-.662.384-1.184.891-1.568,1.52-.384.629-.662,1.296-.832,2-.171.704-.256,1.376-.256,2.016v8.672h-2.528Z"/>
      <path d="m176.766,338.389v-2.784h2.528v2.784h-2.528Zm0,20.352v-16.832h2.528v16.832h-2.528Z"/>
      <path d="m182.974,358.741v-1.472l12.352-13.28h-11.456v-2.08h15.392v1.408l-12.48,13.312h12.928v2.112h-16.736Z"/>
      <path d="m211.582,359.125c-2.005,0-3.712-.32-5.12-.96-1.408-.64-2.48-1.61-3.216-2.912s-1.104-2.944-1.104-4.928c0-1.941.363-3.568,1.088-4.88s1.787-2.293,3.184-2.944c1.397-.65,3.109-.976,5.136-.976,2.112,0,3.84.341,5.184,1.024,1.344.683,2.341,1.622,2.992,2.816.65,1.195.976,2.549.976,4.064v1.6h-15.872c.021,1.451.336,2.619.944,3.504.608.886,1.429,1.52,2.464,1.904,1.034.384,2.213.576,3.536.576,1.003,0,1.877-.123,2.624-.368.747-.245,1.381-.565,1.904-.96.522-.395.928-.821,1.216-1.28.288-.458.442-.901.464-1.328h2.528c-.021.683-.198,1.381-.528,2.096s-.848,1.365-1.552,1.952c-.704.587-1.622,1.067-2.752,1.44-1.131.373-2.496.56-4.096.56Zm-6.752-10.048h13.216c0-1.066-.187-1.952-.56-2.656-.374-.704-.87-1.259-1.488-1.664s-1.328-.699-2.128-.88c-.8-.181-1.616-.272-2.448-.272-1.195,0-2.278.192-3.248.576-.971.384-1.744.976-2.32,1.776-.576.8-.917,1.84-1.024,3.12Z"/>
      <path d="m232.766,359.125c-1.771,0-3.264-.331-4.48-.992s-2.144-1.648-2.784-2.96c-.64-1.312-.96-2.928-.96-4.848,0-1.941.325-3.562.976-4.864.65-1.301,1.589-2.283,2.816-2.944,1.227-.661,2.725-.992,4.496-.992.938,0,1.808.107,2.608.32.8.213,1.525.523,2.176.928.65.405,1.21.917,1.68,1.536h.192v-8.704h2.56v23.136h-2.016l-.288-2.72h-.224c-.747,1.067-1.686,1.851-2.816,2.352-1.131.501-2.443.752-3.936.752Zm.448-2.208c1.216,0,2.299-.213,3.248-.64s1.696-1.104,2.24-2.032c.544-.928.816-2.149.816-3.664v-.512c0-1.152-.155-2.128-.464-2.928-.31-.8-.742-1.45-1.296-1.952-.555-.501-1.216-.875-1.984-1.12-.768-.245-1.6-.368-2.496-.368-1.173,0-2.219.213-3.136.64-.917.427-1.638,1.099-2.16,2.016-.523.917-.784,2.144-.784,3.68v.576c0,1.515.256,2.736.768,3.664.512.928,1.221,1.6,2.128,2.016.906.416,1.946.624,3.12.624Z"/>
      <path d="m266.718,359.125c-2.091,0-3.824-.331-5.2-.992s-2.411-1.648-3.104-2.96c-.693-1.312-1.04-2.928-1.04-4.848,0-1.941.347-3.562,1.04-4.864.693-1.301,1.733-2.283,3.12-2.944,1.386-.661,3.114-.992,5.184-.992,1.194,0,2.304.139,3.328.416,1.024.277,1.915.699,2.672,1.264.757.565,1.344,1.264,1.76,2.096s.624,1.803.624,2.912h-2.528c0-1.088-.283-1.968-.848-2.64-.565-.672-1.296-1.168-2.192-1.488-.896-.32-1.835-.48-2.816-.48-1.302,0-2.454.219-3.456.656-1.003.438-1.787,1.115-2.352,2.032-.565.918-.848,2.155-.848,3.712v.64c0,1.515.283,2.742.848,3.68.565.939,1.354,1.622,2.368,2.048,1.013.427,2.181.64,3.504.64.96,0,1.888-.16,2.784-.48s1.632-.821,2.208-1.504c.576-.683.864-1.546.864-2.592h2.464c0,1.11-.213,2.08-.64,2.912s-1.019,1.531-1.776,2.096c-.757.565-1.643.987-2.656,1.264-1.014.277-2.118.416-3.312.416Z"/>
      <path d="m288.381,359.125c-2.005,0-3.712-.32-5.12-.96-1.408-.64-2.48-1.61-3.216-2.912s-1.104-2.944-1.104-4.928c0-1.941.363-3.568,1.088-4.88s1.787-2.293,3.184-2.944c1.397-.65,3.109-.976,5.136-.976,2.112,0,3.84.341,5.184,1.024,1.344.683,2.341,1.622,2.992,2.816.65,1.195.976,2.549.976,4.064v1.6h-15.872c.021,1.451.336,2.619.944,3.504.608.886,1.429,1.52,2.464,1.904,1.034.384,2.213.576,3.536.576,1.003,0,1.877-.123,2.624-.368.747-.245,1.381-.565,1.904-.96.522-.395.928-.821,1.216-1.28.288-.458.442-.901.464-1.328h2.528c-.021.683-.198,1.381-.528,2.096s-.848,1.365-1.552,1.952c-.704.587-1.622,1.067-2.752,1.44-1.131.373-2.496.56-4.096.56Zm-6.752-10.048h13.216c0-1.066-.187-1.952-.56-2.656-.374-.704-.87-1.259-1.488-1.664s-1.328-.699-2.128-.88c-.8-.181-1.616-.272-2.448-.272-1.195,0-2.278.192-3.248.576-.971.384-1.744.976-2.32,1.776-.576.8-.917,1.84-1.024,3.12Z"/>
      <path d="m301.949,358.741v-23.136h2.528v23.136h-2.528Z"/>
      <path d="m309.533,358.741v-23.136h2.528v23.136h-2.528Z"/>
      <path d="m327.997,358.741v-23.136h2.528v23.136h-2.528Z"/>
      <path d="m335.581,338.389v-2.784h2.528v2.784h-2.528Zm0,20.352v-16.832h2.528v16.832h-2.528Z"/>
      <path d="m343.165,358.741v-16.832h2.016l.224,3.008h.256c.64-.917,1.365-1.621,2.176-2.112.811-.49,1.653-.827,2.528-1.008.875-.181,1.707-.272,2.496-.272,1.493,0,2.741.213,3.744.64,1.003.427,1.765,1.099,2.288,2.016.522.917.784,2.134.784,3.648v10.912h-2.528v-10.432c0-1.002-.123-1.808-.368-2.416-.246-.608-.598-1.072-1.056-1.392-.459-.32-.992-.533-1.6-.64-.608-.106-1.264-.16-1.968-.16-1.067,0-2.091.229-3.072.688-.982.459-1.792,1.104-2.432,1.936-.64.832-.96,1.813-.96,2.944v9.472h-2.528Z"/>
      <path d="m373.341,359.125c-2.005,0-3.712-.32-5.12-.96-1.408-.64-2.48-1.61-3.216-2.912s-1.104-2.944-1.104-4.928c0-1.941.363-3.568,1.088-4.88s1.787-2.293,3.184-2.944c1.397-.65,3.109-.976,5.136-.976,2.112,0,3.84.341,5.184,1.024,1.344.683,2.341,1.622,2.992,2.816.65,1.195.976,2.549.976,4.064v1.6h-15.872c.021,1.451.336,2.619.944,3.504.608.886,1.429,1.52,2.464,1.904,1.034.384,2.213.576,3.536.576,1.003,0,1.877-.123,2.624-.368.747-.245,1.381-.565,1.904-.96.522-.395.928-.821,1.216-1.28.288-.458.442-.901.464-1.328h2.528c-.021.683-.198,1.381-.528,2.096s-.848,1.365-1.552,1.952c-.704.587-1.622,1.067-2.752,1.44-1.131.373-2.496.56-4.096.56Zm-6.752-10.048h13.216c0-1.066-.187-1.952-.56-2.656-.374-.704-.87-1.259-1.488-1.664s-1.328-.699-2.128-.88c-.8-.181-1.616-.272-2.448-.272-1.195,0-2.278.192-3.248.576-.971.384-1.744.976-2.32,1.776-.576.8-.917,1.84-1.024,3.12Z"/>
      <path d="m394.109,359.125c-1.237,0-2.368-.101-3.392-.304s-1.904-.506-2.64-.912c-.736-.405-1.307-.917-1.712-1.536-.405-.618-.608-1.354-.608-2.208,0-.106.005-.218.016-.336.01-.117.026-.218.048-.304h2.592c0,.043-.006.107-.016.192-.011.085-.016.16-.016.224,0,.854.288,1.509.864,1.968.576.459,1.307.768,2.192.928.885.16,1.797.24,2.736.24,1.002,0,1.936-.08,2.8-.24.864-.16,1.557-.448,2.08-.864.522-.416.784-.986.784-1.712,0-.811-.246-1.413-.736-1.808-.491-.395-1.195-.688-2.112-.88-.917-.192-2.027-.384-3.328-.576-1.109-.149-2.107-.341-2.992-.576-.886-.235-1.643-.533-2.272-.896-.629-.363-1.104-.821-1.424-1.376-.32-.555-.48-1.227-.48-2.016,0-.704.155-1.338.464-1.904.309-.565.778-1.05,1.408-1.456.629-.405,1.445-.715,2.448-.928,1.002-.213,2.208-.32,3.616-.32,1.237,0,2.325.112,3.264.336.938.224,1.723.549,2.352.976.629.427,1.104.928,1.424,1.504.32.576.48,1.195.48,1.856v.224c0,.064-.011.16-.032.288h-2.592v-.16c0-.811-.235-1.429-.704-1.856-.47-.427-1.078-.725-1.824-.896-.747-.17-1.536-.256-2.368-.256-.555,0-1.147.032-1.776.096-.629.064-1.216.176-1.76.336-.544.16-.982.395-1.312.704-.331.31-.496.731-.496,1.264,0,.661.267,1.168.8,1.52.533.352,1.232.624,2.096.816.864.192,1.787.363,2.768.512,1.024.149,1.994.315,2.912.496.917.182,1.733.443,2.448.784.714.341,1.28.816,1.696,1.424s.624,1.403.624,2.384c0,.939-.181,1.739-.544,2.4s-.901,1.2-1.616,1.616c-.715.416-1.584.726-2.608.928-1.024.203-2.208.304-3.552.304Z"/>
      <path d="m18.4,396.741v-14.752h-3.328v-2.08h3.328v-2.528c0-.661.117-1.307.352-1.936.235-.629.661-1.141,1.28-1.536.618-.395,1.482-.592,2.592-.592.384,0,.752.016,1.104.048.352.032.677.069.976.112.298.043.576.107.832.192v1.728h-2.24c-.811,0-1.408.16-1.792.48-.384.32-.576.821-.576,1.504v2.528h4.608v2.08h-4.608v14.752h-2.528Z"/>
      <path d="m28.672,396.741v-16.832h2.016l.224,3.2h.192c.128-.469.378-.981.752-1.536.373-.555.896-1.035,1.568-1.44.672-.405,1.499-.608,2.48-.608.341,0,.688.016,1.04.048.352.032.656.091.912.176v2.208h-1.472c-1.024,0-1.867.192-2.528.576-.662.384-1.184.891-1.568,1.52-.384.629-.662,1.296-.832,2-.171.704-.256,1.376-.256,2.016v8.672h-2.528Z"/>
      <path d="m49.28,397.125c-2.048,0-3.766-.336-5.152-1.008s-2.432-1.664-3.136-2.976-1.056-2.917-1.056-4.816c0-1.941.352-3.562,1.056-4.864s1.749-2.283,3.136-2.944c1.387-.661,3.104-.992,5.152-.992s3.765.331,5.152.992c1.387.662,2.432,1.643,3.136,2.944.704,1.301,1.056,2.923,1.056,4.864,0,1.899-.352,3.504-1.056,4.816-.704,1.312-1.749,2.304-3.136,2.976-1.387.672-3.104,1.008-5.152,1.008Zm0-2.112c1.301,0,2.453-.213,3.456-.64,1.002-.426,1.786-1.109,2.352-2.048.565-.938.848-2.165.848-3.68v-.64c0-1.557-.283-2.794-.848-3.712-.565-.917-1.349-1.594-2.352-2.032-1.003-.437-2.155-.656-3.456-.656s-2.454.219-3.456.656c-1.003.438-1.787,1.115-2.352,2.032-.565.918-.848,2.155-.848,3.712v.64c0,1.515.283,2.742.848,3.68.565.939,1.349,1.622,2.352,2.048,1.002.427,2.154.64,3.456.64Z"/>
      <path d="m63.071,396.741v-16.832h2.016l.224,3.008h.256c.619-.917,1.328-1.621,2.128-2.112.8-.49,1.626-.827,2.48-1.008.853-.181,1.664-.272,2.432-.272,1.579,0,2.88.261,3.904.784,1.024.523,1.749,1.392,2.176,2.608h.256c.64-.896,1.365-1.589,2.176-2.08.811-.491,1.648-.832,2.512-1.024.864-.192,1.69-.288,2.48-.288,1.408,0,2.592.213,3.552.64.96.427,1.685,1.099,2.176,2.016.491.917.736,2.134.736,3.648v10.912h-2.528v-10.432c0-1.002-.123-1.808-.368-2.416-.246-.608-.582-1.072-1.008-1.392-.427-.32-.928-.533-1.504-.64-.576-.106-1.206-.16-1.888-.16-1.003,0-1.984.229-2.944.688-.96.459-1.739,1.104-2.336,1.936-.598.832-.896,1.813-.896,2.944v9.472h-2.528v-10.432c0-1.002-.123-1.808-.368-2.416-.246-.608-.582-1.072-1.008-1.392-.427-.32-.933-.533-1.52-.64-.587-.106-1.211-.16-1.872-.16-1.024,0-2.011.229-2.96.688-.95.459-1.728,1.104-2.336,1.936-.608.832-.912,1.813-.912,2.944v9.472h-2.528Z"/>
      <path d="m115.935,397.125c-1.771,0-3.264-.331-4.48-.992s-2.144-1.648-2.784-2.96c-.64-1.312-.96-2.928-.96-4.848,0-1.941.325-3.562.976-4.864.65-1.301,1.589-2.283,2.816-2.944,1.227-.661,2.725-.992,4.496-.992.938,0,1.808.107,2.608.32.8.213,1.525.523,2.176.928.65.405,1.21.917,1.68,1.536h.192v-8.704h2.56v23.136h-2.016l-.288-2.72h-.224c-.747,1.067-1.686,1.851-2.816,2.352-1.131.501-2.443.752-3.936.752Zm.448-2.208c1.216,0,2.299-.213,3.248-.64s1.696-1.104,2.24-2.032c.544-.928.816-2.149.816-3.664v-.512c0-1.152-.155-2.128-.464-2.928-.31-.8-.742-1.45-1.296-1.952-.555-.501-1.216-.875-1.984-1.12-.768-.245-1.6-.368-2.496-.368-1.173,0-2.219.213-3.136.64-.917.427-1.638,1.099-2.16,2.016-.523.917-.784,2.144-.784,3.68v.576c0,1.515.256,2.736.768,3.664.512.928,1.221,1.6,2.128,2.016.906.416,1.946.624,3.12.624Z"/>
      <path d="m130.271,376.389v-2.784h2.528v2.784h-2.528Zm0,20.352v-16.832h2.528v16.832h-2.528Z"/>
      <path d="m143.519,396.741l-7.936-16.832h2.784l4.288,9.248c.149.32.346.763.592,1.328.245.565.501,1.147.768,1.744.267.598.496,1.131.688,1.6h.224c.17-.426.368-.912.592-1.456s.458-1.104.704-1.68c.245-.576.475-1.088.688-1.536l4.288-9.248h2.656l-7.904,16.832h-2.432Z"/>
      <path d="m165.47,397.125c-2.005,0-3.712-.32-5.12-.96-1.408-.64-2.48-1.61-3.216-2.912s-1.104-2.944-1.104-4.928c0-1.941.363-3.568,1.088-4.88s1.787-2.293,3.184-2.944c1.397-.65,3.109-.976,5.136-.976,2.112,0,3.84.341,5.184,1.024,1.344.683,2.341,1.622,2.992,2.816.65,1.195.976,2.549.976,4.064v1.6h-15.872c.021,1.451.336,2.619.944,3.504.608.886,1.429,1.52,2.464,1.904,1.034.384,2.213.576,3.536.576,1.003,0,1.877-.123,2.624-.368.747-.245,1.381-.565,1.904-.96.522-.395.928-.821,1.216-1.28.288-.458.442-.901.464-1.328h2.528c-.021.683-.198,1.381-.528,2.096s-.848,1.365-1.552,1.952c-.704.587-1.622,1.067-2.752,1.44-1.131.373-2.496.56-4.096.56Zm-6.752-10.048h13.216c0-1.066-.187-1.952-.56-2.656-.374-.704-.87-1.259-1.488-1.664s-1.328-.699-2.128-.88c-.8-.181-1.616-.272-2.448-.272-1.195,0-2.278.192-3.248.576-.971.384-1.744.976-2.32,1.776-.576.8-.917,1.84-1.024,3.12Z"/>
      <path d="m179.038,396.741v-16.832h2.016l.224,3.2h.192c.128-.469.378-.981.752-1.536.373-.555.896-1.035,1.568-1.44.672-.405,1.499-.608,2.48-.608.341,0,.688.016,1.04.048.352.032.656.091.912.176v2.208h-1.472c-1.024,0-1.867.192-2.528.576-.662.384-1.184.891-1.568,1.52-.384.629-.662,1.296-.832,2-.171.704-.256,1.376-.256,2.016v8.672h-2.528Z"/>
      <path d="m198.59,397.125c-1.237,0-2.368-.101-3.392-.304s-1.904-.506-2.64-.912c-.736-.405-1.307-.917-1.712-1.536-.405-.618-.608-1.354-.608-2.208,0-.106.005-.218.016-.336.01-.117.026-.218.048-.304h2.592c0,.043-.006.107-.016.192-.011.085-.016.16-.016.224,0,.854.288,1.509.864,1.968.576.459,1.307.768,2.192.928.885.16,1.797.24,2.736.24,1.002,0,1.936-.08,2.8-.24.864-.16,1.557-.448,2.08-.864.522-.416.784-.986.784-1.712,0-.811-.246-1.413-.736-1.808-.491-.395-1.195-.688-2.112-.88-.917-.192-2.027-.384-3.328-.576-1.109-.149-2.107-.341-2.992-.576-.886-.235-1.643-.533-2.272-.896-.629-.363-1.104-.821-1.424-1.376-.32-.555-.48-1.227-.48-2.016,0-.704.155-1.338.464-1.904.309-.565.778-1.05,1.408-1.456.629-.405,1.445-.715,2.448-.928,1.002-.213,2.208-.32,3.616-.32,1.237,0,2.325.112,3.264.336.938.224,1.723.549,2.352.976.629.427,1.104.928,1.424,1.504.32.576.48,1.195.48,1.856v.224c0,.064-.011.16-.032.288h-2.592v-.16c0-.811-.235-1.429-.704-1.856-.47-.427-1.078-.725-1.824-.896-.747-.17-1.536-.256-2.368-.256-.555,0-1.147.032-1.776.096-.629.064-1.216.176-1.76.336-.544.16-.982.395-1.312.704-.331.31-.496.731-.496,1.264,0,.661.267,1.168.8,1.52.533.352,1.232.624,2.096.816.864.192,1.787.363,2.768.512,1.024.149,1.994.315,2.912.496.917.182,1.733.443,2.448.784.714.341,1.28.816,1.696,1.424s.624,1.403.624,2.384c0,.939-.181,1.739-.544,2.4s-.901,1.2-1.616,1.616c-.715.416-1.584.726-2.608.928-1.024.203-2.208.304-3.552.304Z"/>
      <path d="m219.773,397.125c-2.005,0-3.712-.32-5.12-.96-1.408-.64-2.48-1.61-3.216-2.912s-1.104-2.944-1.104-4.928c0-1.941.363-3.568,1.088-4.88s1.787-2.293,3.184-2.944c1.397-.65,3.109-.976,5.136-.976,2.112,0,3.84.341,5.184,1.024,1.344.683,2.341,1.622,2.992,2.816.65,1.195.976,2.549.976,4.064v1.6h-15.872c.021,1.451.336,2.619.944,3.504.608.886,1.429,1.52,2.464,1.904,1.034.384,2.213.576,3.536.576,1.003,0,1.877-.123,2.624-.368.747-.245,1.381-.565,1.904-.96.522-.395.928-.821,1.216-1.28.288-.458.442-.901.464-1.328h2.528c-.021.683-.198,1.381-.528,2.096s-.848,1.365-1.552,1.952c-.704.587-1.622,1.067-2.752,1.44-1.131.373-2.496.56-4.096.56Zm-6.752-10.048h13.216c0-1.066-.187-1.952-.56-2.656-.374-.704-.87-1.259-1.488-1.664s-1.328-.699-2.128-.88c-.8-.181-1.616-.272-2.448-.272-1.195,0-2.278.192-3.248.576-.971.384-1.744.976-2.32,1.776-.576.8-.917,1.84-1.024,3.12Z"/>
      <path d="m244.221,396.741v-23.136h2.528v23.136h-2.528Z"/>
      <path d="m251.805,376.389v-2.784h2.528v2.784h-2.528Zm0,20.352v-16.832h2.528v16.832h-2.528Z"/>
      <path d="m259.389,396.741v-16.832h2.016l.224,3.008h.256c.64-.917,1.365-1.621,2.176-2.112.811-.49,1.653-.827,2.528-1.008.875-.181,1.707-.272,2.496-.272,1.493,0,2.741.213,3.744.64,1.003.427,1.765,1.099,2.288,2.016.522.917.784,2.134.784,3.648v10.912h-2.528v-10.432c0-1.002-.123-1.808-.368-2.416-.246-.608-.598-1.072-1.056-1.392-.459-.32-.992-.533-1.6-.64-.608-.106-1.264-.16-1.968-.16-1.067,0-2.091.229-3.072.688-.982.459-1.792,1.104-2.432,1.936-.64.832-.96,1.813-.96,2.944v9.472h-2.528Z"/>
      <path d="m289.565,397.125c-2.005,0-3.712-.32-5.12-.96-1.408-.64-2.48-1.61-3.216-2.912s-1.104-2.944-1.104-4.928c0-1.941.363-3.568,1.088-4.88s1.787-2.293,3.184-2.944c1.397-.65,3.109-.976,5.136-.976,2.112,0,3.84.341,5.184,1.024,1.344.683,2.341,1.622,2.992,2.816.65,1.195.976,2.549.976,4.064v1.6h-15.872c.021,1.451.336,2.619.944,3.504.608.886,1.429,1.52,2.464,1.904,1.034.384,2.213.576,3.536.576,1.003,0,1.877-.123,2.624-.368.747-.245,1.381-.565,1.904-.96.522-.395.928-.821,1.216-1.28.288-.458.442-.901.464-1.328h2.528c-.021.683-.198,1.381-.528,2.096s-.848,1.365-1.552,1.952c-.704.587-1.622,1.067-2.752,1.44-1.131.373-2.496.56-4.096.56Zm-6.752-10.048h13.216c0-1.066-.187-1.952-.56-2.656-.374-.704-.87-1.259-1.488-1.664s-1.328-.699-2.128-.88c-.8-.181-1.616-.272-2.448-.272-1.195,0-2.278.192-3.248.576-.971.384-1.744.976-2.32,1.776-.576.8-.917,1.84-1.024,3.12Z"/>
      <path d="m309.277,397.125c-.939,0-1.819-.085-2.64-.256-.822-.17-1.542-.437-2.16-.8-.619-.363-1.104-.843-1.456-1.44s-.528-1.333-.528-2.208c0-1.387.389-2.458,1.168-3.216.778-.757,1.861-1.301,3.248-1.632,1.386-.331,2.992-.533,4.816-.608,1.824-.075,3.771-.112,5.84-.112v-1.12c0-1.088-.182-1.925-.544-2.512-.363-.586-.987-1.002-1.872-1.248-.885-.245-2.096-.368-3.632-.368-1.302,0-2.374.118-3.216.352-.843.235-1.467.55-1.872.944-.406.395-.608.859-.608,1.392v.64h-2.464c-.021-.085-.038-.181-.048-.288-.011-.106-.016-.224-.016-.352,0-1.024.32-1.888.96-2.592s1.6-1.243,2.88-1.616c1.28-.373,2.869-.56,4.768-.56,1.813,0,3.328.181,4.544.544,1.216.363,2.128.96,2.736,1.792.608.832.912,1.984.912,3.456v8.448c0,.448.08.768.24.96s.453.288.88.288h1.568v1.664c-.363.128-.763.229-1.2.304-.438.074-.837.112-1.2.112-.79,0-1.371-.139-1.744-.416-.374-.277-.63-.645-.768-1.104-.139-.458-.219-.976-.24-1.552h-.224c-.597.683-1.333,1.254-2.208,1.712-.875.459-1.824.805-2.848,1.04-1.024.234-2.048.352-3.072.352Zm.352-2.112c.938,0,1.877-.117,2.816-.352.938-.234,1.792-.56,2.56-.976s1.387-.917,1.856-1.504c.469-.586.704-1.232.704-1.936v-1.536c-2.752,0-5.056.086-6.912.256-1.856.171-3.248.512-4.176,1.024-.928.512-1.392,1.301-1.392,2.368,0,.683.224,1.216.672,1.6.448.384,1.024.656,1.728.816.704.16,1.418.24,2.144.24Z"/>
      <path d="m328.797,402.725c-.939,0-1.787-.166-2.544-.496-.757-.331-1.355-.816-1.792-1.456-.438-.64-.656-1.408-.656-2.304s.277-1.686.832-2.368c.555-.682,1.269-1.194,2.144-1.536-.619-.256-1.077-.645-1.376-1.168-.299-.522-.448-1.061-.448-1.616,0-.704.261-1.36.784-1.968.523-.608,1.264-.986,2.224-1.136-.854-.491-1.483-1.072-1.888-1.744-.406-.672-.608-1.402-.608-2.192,0-1.066.283-1.995.848-2.784.565-.789,1.467-1.392,2.704-1.808,1.237-.416,2.869-.624,4.896-.624.917,0,1.749.048,2.496.144.747.096,1.418.24,2.016.432.981-.277,1.787-.672,2.416-1.184.629-.512,1.029-1.098,1.2-1.76h2.528c-.064.598-.256,1.173-.576,1.728-.32.555-.773,1.024-1.36,1.408-.587.384-1.296.64-2.128.768.661.448,1.136.981,1.424,1.6.288.619.432,1.312.432,2.08,0,1.024-.267,1.931-.8,2.72-.534.789-1.397,1.397-2.592,1.824-1.195.427-2.774.64-4.736.64h-4.384c-.64,0-1.173.144-1.6.432-.427.288-.64.699-.64,1.232s.235.944.704,1.232,1.077.432,1.824.432h9.504c1.386,0,2.496.438,3.328,1.312.832.875,1.248,1.963,1.248,3.264,0,.938-.246,1.776-.736,2.512-.491.736-1.142,1.317-1.952,1.744-.811.426-1.739.64-2.784.64h-9.952Zm.416-1.984h9.472c.576,0,1.083-.118,1.52-.352.437-.235.773-.555,1.008-.96.234-.405.352-.843.352-1.312,0-.811-.219-1.451-.656-1.92-.438-.469-1.03-.704-1.776-.704h-9.952c-.747,0-1.392.251-1.936.752s-.816,1.125-.816,1.872c0,.768.267,1.397.8,1.888.533.49,1.194.736,1.984.736Zm4.704-12.8c2.048,0,3.53-.277,4.448-.832.917-.555,1.376-1.344,1.376-2.368,0-1.045-.459-1.845-1.376-2.4-.917-.555-2.4-.832-4.448-.832s-3.531.277-4.448.832c-.917.555-1.376,1.355-1.376,2.4,0,.683.187,1.264.56,1.744.373.48.987.843,1.84,1.088.853.246,1.994.368,3.424.368Z"/>
      <path d="m356.188,397.125c-2.005,0-3.712-.32-5.12-.96-1.408-.64-2.48-1.61-3.216-2.912s-1.104-2.944-1.104-4.928c0-1.941.363-3.568,1.088-4.88s1.787-2.293,3.184-2.944c1.397-.65,3.109-.976,5.136-.976,2.112,0,3.84.341,5.184,1.024,1.344.683,2.341,1.622,2.992,2.816.65,1.195.976,2.549.976,4.064v1.6h-15.872c.021,1.451.336,2.619.944,3.504.608.886,1.429,1.52,2.464,1.904,1.034.384,2.213.576,3.536.576,1.003,0,1.877-.123,2.624-.368.747-.245,1.381-.565,1.904-.96.522-.395.928-.821,1.216-1.28.288-.458.442-.901.464-1.328h2.528c-.021.683-.198,1.381-.528,2.096s-.848,1.365-1.552,1.952c-.704.587-1.622,1.067-2.752,1.44-1.131.373-2.496.56-4.096.56Zm-6.752-10.048h13.216c0-1.066-.187-1.952-.56-2.656-.374-.704-.87-1.259-1.488-1.664s-1.328-.699-2.128-.88c-.8-.181-1.616-.272-2.448-.272-1.195,0-2.278.192-3.248.576-.971.384-1.744.976-2.32,1.776-.576.8-.917,1.84-1.024,3.12Z"/>
      <path d="m376.957,397.125c-1.237,0-2.368-.101-3.392-.304s-1.904-.506-2.64-.912c-.736-.405-1.307-.917-1.712-1.536-.405-.618-.608-1.354-.608-2.208,0-.106.005-.218.016-.336.01-.117.026-.218.048-.304h2.592c0,.043-.006.107-.016.192-.011.085-.016.16-.016.224,0,.854.288,1.509.864,1.968.576.459,1.307.768,2.192.928.885.16,1.797.24,2.736.24,1.002,0,1.936-.08,2.8-.24.864-.16,1.557-.448,2.08-.864.522-.416.784-.986.784-1.712,0-.811-.246-1.413-.736-1.808-.491-.395-1.195-.688-2.112-.88-.917-.192-2.027-.384-3.328-.576-1.109-.149-2.107-.341-2.992-.576-.886-.235-1.643-.533-2.272-.896-.629-.363-1.104-.821-1.424-1.376-.32-.555-.48-1.227-.48-2.016,0-.704.155-1.338.464-1.904.309-.565.778-1.05,1.408-1.456.629-.405,1.445-.715,2.448-.928,1.002-.213,2.208-.32,3.616-.32,1.237,0,2.325.112,3.264.336.938.224,1.723.549,2.352.976.629.427,1.104.928,1.424,1.504.32.576.48,1.195.48,1.856v.224c0,.064-.011.16-.032.288h-2.592v-.16c0-.811-.235-1.429-.704-1.856-.47-.427-1.078-.725-1.824-.896-.747-.17-1.536-.256-2.368-.256-.555,0-1.147.032-1.776.096-.629.064-1.216.176-1.76.336-.544.16-.982.395-1.312.704-.331.31-.496.731-.496,1.264,0,.661.267,1.168.8,1.52.533.352,1.232.624,2.096.816.864.192,1.787.363,2.768.512,1.024.149,1.994.315,2.912.496.917.182,1.733.443,2.448.784.714.341,1.28.816,1.696,1.424s.624,1.403.624,2.384c0,.939-.181,1.739-.544,2.4s-.901,1.2-1.616,1.616c-.715.416-1.584.726-2.608.928-1.024.203-2.208.304-3.552.304Z"/>
    </g>
    <g>
      <path class="cls-9" d="m250.902,190.694c-.677-20.379,16.61-38.757,37.141-39.484,21.715-.768,39.951,15.458,41.225,35.667,1.538,24.365-16.346,42.081-37.837,42.865-22.243.81-39.77-16.221-40.527-39.047h-.003Z"/>
      <path class="cls-18" d="m84.693,216.231c0-18.335,14.043-32.532,32.204-32.551,18.132-.021,32.396,14.294,32.404,32.516.005,18.161-14.381,32.674-32.354,32.636-18.121-.037-32.255-14.32-32.255-32.602h0Z"/>
      <path class="cls-19" d="m157.674,94.656c.013,18.252-14.179,32.668-32.21,32.716-18.081.048-32.418-14.326-32.439-32.519-.021-18.249,14.179-32.663,32.244-32.724,18.039-.061,32.394,14.347,32.407,32.53l-.003-.003Z"/>
      <path class="cls-11" d="m89.017,141.935c12.43.005,21.936,9.303,21.8,21.328-.136,11.985-9.93,21.67-21.845,21.6-11.742-.067-21.542-9.78-21.619-21.427-.077-12.076,9.423-21.504,21.664-21.502Z"/>
      <path class="cls-20" d="m187.685,142.479c-12.513.008-21.984-9.237-21.829-21.315.152-12.062,9.794-21.608,21.821-21.6,11.83.005,21.448,9.57,21.504,21.379.056,12.262-9.191,21.528-21.494,21.539l-.003-.003Z"/>
      <path class="cls-25" d="m207.315,240.724c-12.004-.04-21.264-9.301-21.36-21.355-.093-12.036,9.533-21.635,21.656-21.595,12.198.043,21.627,9.517,21.555,21.664-.072,12.182-9.458,21.326-21.851,21.283v.003Z"/>
      <path class="cls-15" d="m207.633,272.059c-.008,12.313-9.413,21.75-21.56,21.632-11.758-.112-21.342-9.788-21.387-21.595-.045-12.041,9.503-21.702,21.544-21.795,12.078-.096,21.411,9.394,21.403,21.758Z"/>
      <path class="cls-3" d="m262.874,86.808c.008-12.361,9.165-21.462,21.558-21.422,11.924.037,21.35,9.469,21.387,21.392.037,12.23-9.282,21.539-21.582,21.555-12.523.019-21.371-8.898-21.363-21.528v.003Z"/>
      <path class="cls-19" d="m230.941,73.4c-.053,10.258-7.981,18.204-18.191,18.231-10.418.027-18.935-8.504-18.751-18.78.179-10.015,8.474-18.201,18.452-18.215,10.692-.013,18.543,7.954,18.487,18.767l.003-.003Z"/>
      <path class="cls-8" d="m132.204,168.211c-9.938.059-17.943-7.829-18.111-17.85-.165-9.826,8.352-18.249,18.337-18.135,9.666.112,17.522,8.109,17.631,17.948.109,9.892-7.893,17.975-17.855,18.034l-.003.003Z"/>
      <path class="cls-6" d="m261.864,241.073c10.044-.056,18.148,7.901,18.135,17.807-.011,10.122-7.821,17.946-17.951,17.98-9.799.035-18.063-8.248-18.036-18.076.027-9.73,8.016-17.658,17.85-17.711h.003Z"/>
      <path class="cls-3" d="m249.26,172.711c-.04,9.996-8.152,18.068-17.964,17.876-9.94-.197-17.554-8.216-17.498-18.433.053-9.717,8.13-17.671,17.868-17.602,10.244.075,17.636,7.704,17.594,18.161v-.003Z"/>
      <path class="cls-11" d="m178.432,52.759c-.008,9.874-7.776,17.746-17.599,17.836-9.927.091-17.866-7.957-17.799-18.042.064-9.818,8.05-17.727,17.799-17.631,9.842.099,17.607,7.965,17.599,17.836h0Z"/>
      <path class="cls-15" d="m248.882,46.191c9.461-.021,16.906,7.304,16.951,16.677.045,9.29-7.595,16.999-16.845,17.002-9.333.003-16.805-7.496-16.861-16.922-.056-9.645,7.032-16.735,16.757-16.757h-.003Z"/>
      <path class="cls-19" d="m194.088,166.974c8.266.035,14.744,6.544,14.707,14.779-.035,8.184-6.686,14.76-14.872,14.704-8.082-.056-14.915-6.915-14.808-14.867.109-8.157,6.763-14.651,14.971-14.616h.003Z"/>
      <path class="cls-26" d="m257.806,228.637c.096,7.517-5.513,13.374-12.899,13.47-7.08.091-13.313-5.987-13.459-13.121-.144-7.04,6.091-13.446,13.099-13.456,7.496-.011,13.163,5.593,13.259,13.107h0Z"/>
      <path class="cls-9" d="m210.679,40.518c.083,7.021-6.088,13.321-13.145,13.419-7.056.099-13.243-5.99-13.366-13.158-.12-7.117,5.923-13.281,13.105-13.363,7.133-.083,13.323,5.966,13.406,13.099v.003Z"/>
      <path class="cls-9" d="m135.6,275.639c-7.261-.064-13.227-6.091-13.102-13.238.128-7.208,6.131-12.985,13.48-12.971,7.16.013,13.222,6.222,13.043,13.363-.187,7.539-5.801,12.913-13.422,12.846h0Z"/>
      <path class="cls-24" d="m151.415,194.031c-7.203-.053-13.267-6.144-13.182-13.241.088-7.288,5.963-12.998,13.358-12.982,7.355.016,13.163,5.859,13.113,13.187-.051,7.304-5.95,13.091-13.289,13.038v-.003Z"/>
      <path class="cls-18" d="m298.197,148.247c-7.315.011-13.315-5.854-13.342-13.043-.027-7.173,5.995-13.169,13.241-13.177,7.269-.011,13.302,5.934,13.302,13.107,0,7.325-5.814,13.102-13.201,13.113h0Z"/>
      <path class="cls-21" d="m257.049,121.047c.048-7.501,5.406-13.033,12.697-13.102,7.235-.069,13.464,5.99,13.475,13.105.011,7.528-5.633,13.11-13.235,13.091-7.837-.019-12.985-5.227-12.937-13.097v.003Z"/>
      <path class="cls-6" d="m221.793,151.633c-7.683-.019-13.107-5.478-13.011-13.094.093-7.525,5.91-13.241,13.307-13.081,6.984.149,12.939,6.232,12.915,13.193-.024,7.576-5.545,13.001-13.209,12.982h-.003Z"/>
      <path class="cls-28" d="m173.855,72.003c7.427.053,12.899,5.497,12.899,12.83,0,7.485-5.713,13.318-13.073,13.35-7.179.029-13.161-6.038-13.153-13.342.008-7.488,5.617-12.891,13.329-12.835l-.003-.003Z"/>
      <path class="cls-11" d="m210.426,281.634c.011-6.342,4.82-11.249,10.924-11.151,6.139.101,11.124,5.139,11.103,11.22-.021,6.088-5.044,11.103-11.175,11.153-6.112.051-10.865-4.862-10.855-11.223h.003Z"/>
      <path class="cls-11" d="m162.02,211.049c6.382.024,11.156,4.785,10.996,10.964-.16,6.166-5.206,11.14-11.212,11.055-6.046-.085-11.172-5.297-11.052-11.231.125-6.235,4.905-10.812,11.268-10.785v-.003Z"/>
      <path class="cls-20" d="m84.293,113.649c6.355.048,10.921,4.718,10.876,11.132-.043,6.222-4.918,11.012-11.148,10.951-6.222-.064-10.916-4.897-10.913-11.239,0-6.267,4.772-10.892,11.185-10.844h0Z"/>
      <path class="cls-18" d="m224.65,30.426c6.283-.069,11.127,4.622,11.215,10.865.088,6.24-4.612,11.052-10.935,11.193-6.238.141-11.084-4.609-11.132-10.908-.048-6.4,4.508-11.081,10.852-11.151Z"/>
      <path class="cls-11" d="m237.59,108.758c.069,6.03-4.353,10.636-10.234,10.658-5.881.021-10.692-4.702-10.615-10.423.077-5.742,4.505-10.223,10.215-10.338,6.275-.123,10.562,3.951,10.634,10.103Z"/>
      <path class="cls-5" d="m172.482,209.911c-6.088.024-10.322-4.087-10.282-9.98.043-6.019,4.577-10.471,10.572-10.375,5.507.088,9.746,4.505,9.815,10.228.075,5.99-4.028,10.103-10.106,10.127Z"/>
      <path class="cls-24" d="m230.515,268.194c-5.843-.035-10.002-4.103-10.028-9.804-.024-5.603,4.716-10.367,10.26-10.311,5.395.056,9.97,4.67,10.031,10.122.067,5.819-4.257,10.028-10.266,9.994h.003Z"/>
      <path class="cls-27" d="m170.982,156.253c4.67-.059,8.842,4.049,8.776,8.642-.067,4.766-4.025,8.733-8.72,8.738-4.734.005-8.773-3.999-8.741-8.664.032-4.782,3.892-8.656,8.685-8.714v-.003Z"/>
      <path class="cls-19" d="m302.518,243.946c.077,5.11-3.433,8.797-8.445,8.869-4.758.069-8.605-3.855-8.64-8.815-.035-4.737,3.556-8.453,8.328-8.621,4.873-.171,8.682,3.553,8.757,8.568Z"/>
      <path class="cls-19" d="m176.071,244.224c-.027,4.988-3.804,8.701-8.736,8.589-4.492-.101-8.389-4.135-8.381-8.674.005-4.833,3.857-8.736,8.674-8.781,4.782-.048,8.469,3.825,8.442,8.866h0Z"/>
      <path class="cls-25" d="m163.344,129.484c-.101,4.694-4.268,8.637-8.989,8.509-4.556-.125-8.362-4.068-8.37-8.677-.011-4.758,4.081-8.845,8.746-8.738,4.742.109,8.717,4.217,8.616,8.903l-.003.003Z"/>
      <path class="cls-15" d="m198.438,155.682c.048,4.969-3.218,8.322-8.208,8.432-5.131.115-8.77-3.276-8.874-8.272-.104-4.956,3.561-8.768,8.458-8.802,4.942-.035,8.576,3.607,8.624,8.64v.003Z"/>
      <path class="cls-9" d="m238.238,98.268c-5.009.064-8.634-3.505-8.65-8.52-.016-5.065,3.172-8.442,8.09-8.565,5.052-.125,8.853,3.361,8.997,8.256.147,4.937-3.513,8.765-8.437,8.829h0Z"/>
      <path class="cls-20" d="m254.346,161.555c-4.764.091-8.538-3.444-8.757-8.197-.221-4.809,3.66-8.837,8.522-8.845,4.884-.008,8.544,3.431,8.722,8.197.184,4.929-3.481,8.749-8.488,8.845h0Z"/>
      <path class="cls-28" d="m107.034,127.807c4.313.011,7.747,3.393,7.675,7.557-.075,4.305-3.42,7.731-7.605,7.781-4.364.053-7.952-3.519-7.93-7.896.021-4.049,3.615-7.453,7.859-7.443h.003Z"/>
      <path class="cls-15" d="m311.784,95.328c4.764-.048,7.946,3.074,7.859,7.704-.077,4.047-3.791,7.619-7.859,7.56-4.111-.059-7.731-3.676-7.715-7.709.016-4.193,3.401-7.509,7.712-7.555h.003Z"/>
      <path class="cls-9" d="m331.615,139.093c-.131,4.321-3.497,7.491-7.829,7.365-4.265-.123-7.725-3.964-7.48-8.298.245-4.31,3.612-7.208,8.13-7,4.414.203,7.315,3.407,7.179,7.933Z"/>
      <path class="cls-25" d="m148.003,278.521c.075-4.481,3.159-7.512,7.613-7.483,4.286.029,7.648,3.345,7.688,7.581.04,4.241-3.681,7.824-8.04,7.741-4.34-.08-7.336-3.316-7.259-7.843l-.003.003Z"/>
      <path class="cls-9" d="m253.331,115.819c.048,3.892-2.476,6.515-6.395,6.643-3.913.128-7.093-2.786-7.109-6.515-.016-3.556,3.375-6.859,7.019-6.84,3.644.019,6.438,2.908,6.486,6.712h0Z"/>
      <path class="cls-15" d="m192.979,241.582c.024,3.66-2.82,6.467-6.627,6.542-3.903.077-6.576-2.482-6.648-6.36-.072-3.969,2.863-7.005,6.672-6.904,3.561.096,6.579,3.17,6.603,6.72v.003Z"/>
      <path class="cls-15" d="m247.829,205.611c-.029,3.719-2.852,6.614-6.515,6.68-3.772.069-6.75-3.012-6.664-6.899.08-3.687,3.047-6.595,6.632-6.504,3.54.088,6.576,3.207,6.547,6.723h0Z"/>
      <path class="cls-15" d="m117.758,167.992c3.601-.096,6.646,2.788,6.792,6.435.152,3.788-2.508,6.816-6.134,6.987-3.807.179-6.973-2.791-7.021-6.584-.048-3.687,2.796-6.742,6.363-6.838Z"/>
      <path class="cls-6" d="m262.831,101.318c.077,3.708-2.778,6.771-6.358,6.819-3.588.048-6.67-2.895-6.787-6.483-.117-3.604,2.847-6.792,6.368-6.856,3.505-.061,6.704,3.012,6.776,6.518v.003Z"/>
      <path class="cls-28" d="m275.387,136.966c3.9.075,6.35,2.668,6.254,6.616-.093,3.855-2.783,6.39-6.67,6.288-3.812-.101-6.288-2.772-6.232-6.726.053-3.919,2.57-6.256,6.648-6.179Z"/>
      <path class="cls-17" d="m215.025,99.606c-.053,3.369-2.423,5.87-5.606,5.913-3.271.043-6.142-2.767-6.104-5.977.043-3.46,2.62-5.894,6.136-5.801,3.303.091,5.622,2.532,5.571,5.865h.003Z"/>
      <path class="cls-25" d="m79.039,201.455c-3.375,0-5.977-2.698-5.878-6.099.093-3.225,2.634-5.731,5.825-5.75,3.143-.019,6.038,2.959,5.99,6.155-.048,3.047-2.802,5.691-5.937,5.694Z"/>
      <path class="cls-25" d="m333.923,157.436c.053,3.186-2.471,5.686-5.841,5.793-3.364.107-5.897-2.237-5.985-5.537-.088-3.279,2.754-6.224,5.974-6.19,3.018.032,5.803,2.858,5.851,5.934h0Z"/>
      <path class="cls-21" d="m190.457,64.616c-.048,3.327-2.932,6.062-6.232,5.913-3.279-.149-5.51-2.668-5.406-6.107.104-3.447,2.447-5.715,5.835-5.649,3.164.061,5.851,2.767,5.806,5.843h-.003Z"/>
      <path class="cls-6" d="m148.955,238.172c3.191.093,5.849,2.77,5.825,5.862-.027,3.457-2.668,5.921-6.208,5.79-3.34-.123-5.633-2.604-5.51-5.963.12-3.292,2.7-5.782,5.894-5.689h0Z"/>
      <path class="cls-9" d="m160.42,141.852c3.508-.088,6.211,2.46,6.168,5.819-.043,3.202-2.583,5.601-5.931,5.595-3.42-.005-5.857-2.301-5.913-5.571-.056-3.268,2.364-5.758,5.675-5.843h0Z"/>
      <path class="cls-6" d="m280.516,57.043c-.024,3.268-2.66,5.913-5.582,5.929-3.047.019-5.401-2.5-5.289-5.665.115-3.279,2.359-5.39,5.649-5.23,3.34.16,4.87,2.167,5.222,4.964v.003Z"/>
      <path class="cls-11" d="m321.893,124.131c-3.327-.187-5.084-2.026-5.06-5.267.024-3.1,1.906-4.782,4.94-4.982,2.847-.187,5.574,2.319,5.393,5.06-.208,3.159-1.962,5.025-5.273,5.19Z"/>
      <path class="cls-12" d="m207.417,145.942c-.392,3.034-2.026,4.854-5.153,4.74-3.079-.115-4.921-1.973-4.82-5.025.096-2.882,1.994-4.409,4.902-4.489,3.244-.088,4.692,1.775,5.07,4.774h0Z"/>
      <path class="cls-18" d="m259.217,87.304c-.363,2.911-2.045,4.414-4.988,4.31-3.234-.115-4.748-2.021-4.564-5.134.176-2.98,2.015-4.481,4.932-4.382,3.22.109,4.604,2.069,4.62,5.206Z"/>
      <path class="cls-22" d="m247.565,136.908c-.067,2.762-1.399,4.51-4.217,4.577-3.023.072-4.561-1.695-4.54-4.665.021-2.828,1.671-4.414,4.401-4.388,2.727.027,4.265,1.647,4.356,4.476h0Z"/>
      <path class="cls-28" d="m218.826,249.096c-.466,2.863-1.973,4.574-4.74,4.382-2.663-.184-4.398-1.858-4.241-4.641.152-2.722,1.911-4.356,4.641-4.238,2.762.12,4.023,2.045,4.34,4.494v.003Z"/>
    </g>
    <g>
      <path d="m419.928,241.02c-.123-1.038-.622-1.844-1.496-2.417-.874-.574-1.946-.861-3.216-.861-.929,0-1.74.15-2.433.451-.693.301-1.232.714-1.618,1.24-.386.526-.579,1.124-.579,1.792,0,.56.135,1.04.405,1.439.27.399.616.73,1.04.994.423.263.867.478,1.332.645.464.167.891.302,1.28.405l2.13.574c.546.143,1.156.341,1.829.594.673.252,1.318.596,1.936,1.029s1.128.988,1.532,1.665c.403.676.604,1.506.604,2.489,0,1.134-.295,2.158-.886,3.073-.591.916-1.452,1.643-2.582,2.182-1.13.54-2.501.809-4.113.809-1.502,0-2.802-.242-3.897-.727-1.096-.485-1.957-1.161-2.582-2.028s-.979-1.875-1.06-3.022h2.622c.068.792.336,1.446.804,1.962s1.062.898,1.782,1.147c.721.25,1.497.374,2.331.374.97,0,1.84-.159,2.612-.477.771-.317,1.383-.761,1.833-1.332.451-.57.676-1.238.676-2.002,0-.697-.194-1.263-.583-1.701-.39-.437-.902-.792-1.537-1.065-.635-.273-1.322-.512-2.059-.717l-2.582-.737c-1.639-.471-2.937-1.144-3.893-2.018s-1.434-2.018-1.434-3.432c0-1.174.319-2.201.958-3.078.638-.877,1.499-1.561,2.582-2.049,1.082-.488,2.292-.732,3.631-.732,1.352,0,2.554.241,3.605.722s1.886,1.139,2.504,1.972c.618.833.944,1.779.979,2.837h-2.458Z"/>
      <path d="m433.367,241.02v2.048h-8.154v-2.048h8.154Zm-5.777-3.77h2.417v14.997c0,.683.101,1.193.302,1.532.201.338.461.563.778.676.318.113.654.169,1.009.169.266,0,.485-.015.655-.046.171-.031.308-.056.41-.077l.492,2.171c-.164.062-.393.125-.687.189s-.666.098-1.117.098c-.683,0-1.351-.147-2.002-.441-.652-.293-1.192-.741-1.619-1.342-.427-.601-.64-1.359-.64-2.274v-15.652Z"/>
      <path d="m441.644,257.122c-.997,0-1.902-.189-2.715-.568-.812-.379-1.458-.929-1.936-1.649-.478-.72-.717-1.593-.717-2.617,0-.901.177-1.634.533-2.197.355-.563.83-1.005,1.424-1.326.594-.321,1.251-.562,1.972-.722.721-.161,1.446-.289,2.177-.384.956-.123,1.733-.217,2.331-.282s1.035-.176,1.311-.333c.277-.157.415-.43.415-.819v-.082c0-1.011-.275-1.796-.825-2.356s-1.381-.84-2.494-.84c-1.154,0-2.059.252-2.715.758-.655.505-1.116,1.045-1.383,1.619l-2.294-.82c.41-.956.958-1.702,1.644-2.238.687-.536,1.438-.912,2.253-1.127.816-.215,1.62-.323,2.413-.323.505,0,1.087.06,1.747.179.659.12,1.297.364,1.916.732.618.369,1.132.925,1.542,1.67.41.744.615,1.741.615,2.991v10.367h-2.417v-2.131h-.123c-.164.342-.437.707-.819,1.096-.383.389-.891.721-1.526.994s-1.41.41-2.325.41Zm.369-2.171c.956,0,1.764-.188,2.423-.563.659-.375,1.157-.86,1.495-1.455.338-.594.507-1.219.507-1.875v-2.213c-.103.123-.326.234-.671.333-.345.099-.741.185-1.188.256s-.881.133-1.301.184-.76.094-1.019.128c-.628.082-1.214.213-1.757.394-.543.181-.98.451-1.312.81-.331.358-.497.845-.497,1.459,0,.84.312,1.474.937,1.9.625.427,1.419.64,2.382.64Z"/>
      <path d="m453.608,256.753v-20.979h2.417v7.744h.205c.178-.273.425-.623.743-1.05.318-.427.775-.809,1.373-1.147.598-.338,1.409-.507,2.433-.507,1.325,0,2.493.332,3.503.994,1.01.663,1.799,1.602,2.366,2.817.566,1.216.85,2.65.85,4.302,0,1.667-.284,3.109-.85,4.328-.567,1.219-1.353,2.161-2.356,2.827-1.004.666-2.162.999-3.473.999-1.011,0-1.82-.169-2.428-.507-.608-.338-1.076-.724-1.403-1.158-.328-.434-.581-.794-.758-1.081h-.287v2.417h-2.335Zm2.376-7.867c0,1.188.174,2.235.522,3.14.348.905.857,1.612,1.526,2.121.669.509,1.488.763,2.458.763,1.011,0,1.856-.268,2.536-.804.679-.536,1.191-1.26,1.537-2.172.345-.912.517-1.927.517-3.047,0-1.106-.169-2.105-.507-2.996-.338-.891-.847-1.598-1.526-2.121-.68-.522-1.532-.783-2.556-.783-.983,0-1.81.248-2.479.743-.669.495-1.175,1.185-1.516,2.069-.342.885-.512,1.914-.512,3.088Z"/>
      <path d="m473.603,235.775v20.979h-2.417v-20.979h2.417Z"/>
      <path d="m479.585,262.654c-.41,0-.775-.033-1.096-.098-.321-.065-.542-.128-.666-.189l.615-2.13c.587.15,1.106.205,1.557.164.451-.041.852-.241,1.204-.599s.674-.937.968-1.736l.451-1.229-5.818-15.816h2.623l4.343,12.538h.164l4.343-12.538h2.623l-6.679,18.028c-.301.812-.673,1.487-1.117,2.023-.444.536-.958.934-1.542,1.193-.584.259-1.241.389-1.972.389Z"/>
      <path d="m503.432,238.397c-.471,0-.876-.16-1.214-.481-.338-.321-.507-.707-.507-1.158s.169-.836.507-1.157.743-.481,1.214-.481.876.161,1.214.481.507.707.507,1.157-.169.837-.507,1.158c-.338.321-.743.481-1.214.481Zm-1.229,18.356v-15.734h2.417v15.734h-2.417Z"/>
      <path d="m511.463,247.289v9.465h-2.417v-15.734h2.336v2.458h.205c.369-.799.929-1.443,1.68-1.931.751-.488,1.721-.732,2.909-.732,1.065,0,1.997.217,2.796.65.799.434,1.42,1.089,1.864,1.967s.666,1.986.666,3.324v9.998h-2.417v-9.834c0-1.236-.321-2.2-.963-2.894-.642-.693-1.523-1.04-2.643-1.04-.772,0-1.459.167-2.064.502-.604.334-1.081.823-1.429,1.464-.348.642-.522,1.421-.522,2.336Z"/>
      <path d="m532.934,241.02v2.048h-8.482v-2.048h8.482Zm-5.941,15.734v-17.906c0-.901.212-1.652.635-2.253s.973-1.052,1.649-1.352c.676-.301,1.39-.451,2.141-.451.594,0,1.079.048,1.455.143.375.096.656.185.84.267l-.696,2.089c-.123-.041-.292-.092-.507-.153-.215-.062-.497-.092-.845-.092-.799,0-1.375.202-1.726.604-.352.403-.528.994-.528,1.772v17.332h-2.417Z"/>
      <path d="m542.276,257.081c-1.516,0-2.822-.336-3.918-1.009-1.096-.672-1.939-1.615-2.53-2.827-.591-1.212-.886-2.624-.886-4.236s.295-3.034.886-4.267c.59-1.232,1.417-2.195,2.479-2.889,1.062-.693,2.303-1.04,3.724-1.04.82,0,1.629.137,2.428.41.799.273,1.526.715,2.182,1.327.655.611,1.178,1.419,1.567,2.422.39,1.004.584,2.24.584,3.708v1.024h-12.128v-2.09h9.67c0-.888-.176-1.68-.527-2.376-.352-.697-.85-1.246-1.496-1.649-.646-.403-1.405-.604-2.279-.604-.963,0-1.794.237-2.494.712-.7.475-1.238,1.091-1.613,1.849-.376.758-.563,1.571-.563,2.438v1.393c0,1.188.207,2.194.62,3.017.413.823.989,1.448,1.726,1.875.738.427,1.595.64,2.571.64.635,0,1.21-.09,1.726-.271.515-.181.961-.454,1.336-.819s.666-.821.871-1.368l2.335.656c-.246.792-.659,1.487-1.24,2.084s-1.297,1.062-2.151,1.393c-.854.331-1.813.497-2.878.497Z"/>
      <path d="m558.87,257.081c-1.475,0-2.745-.348-3.811-1.045-1.065-.696-1.885-1.656-2.458-2.878-.574-1.222-.86-2.619-.86-4.189,0-1.598.295-3.01.886-4.236.59-1.226,1.417-2.185,2.479-2.878,1.062-.693,2.303-1.04,3.724-1.04,1.106,0,2.104.205,2.991.615s1.615.983,2.182,1.721c.566.738.918,1.598,1.055,2.582h-2.417c-.184-.717-.592-1.354-1.224-1.911-.631-.556-1.48-.834-2.545-.834-.942,0-1.767.244-2.474.732-.707.488-1.257,1.174-1.649,2.059-.393.885-.589,1.921-.589,3.109,0,1.216.193,2.274.579,3.176s.932,1.602,1.639,2.1c.707.499,1.538.748,2.494.748.628,0,1.199-.109,1.711-.328.512-.219.946-.533,1.301-.943.355-.41.608-.901.758-1.475h2.417c-.137.929-.473,1.763-1.009,2.504s-1.243,1.328-2.121,1.762-1.896.65-3.058.65Z"/>
      <path d="m575.423,241.02v2.048h-8.154v-2.048h8.154Zm-5.777-3.77h2.417v14.997c0,.683.101,1.193.302,1.532.201.338.461.563.778.676.318.113.654.169,1.009.169.266,0,.485-.015.655-.046.171-.031.308-.056.41-.077l.492,2.171c-.164.062-.393.125-.687.189s-.666.098-1.117.098c-.683,0-1.351-.147-2.002-.441-.652-.293-1.192-.741-1.619-1.342-.427-.601-.64-1.359-.64-2.274v-15.652Z"/>
    </g>
    <g>
      <path d="m409.152,141.529h-6.474v-20.979h6.761c2.035,0,3.776.418,5.224,1.254,1.448.837,2.557,2.035,3.329,3.596.771,1.561,1.158,3.426,1.158,5.598,0,2.186-.39,4.065-1.168,5.639-.778,1.574-1.912,2.783-3.401,3.626-1.489.844-3.298,1.265-5.429,1.265Zm-3.934-2.253h3.77c1.734,0,3.172-.334,4.312-1.004,1.14-.669,1.99-1.622,2.55-2.858.56-1.236.84-2.708.84-4.415,0-1.694-.277-3.153-.83-4.379-.553-1.226-1.379-2.168-2.479-2.827-1.1-.659-2.469-.988-4.108-.988h-4.057v16.472Z"/>
      <path d="m440.047,120.55v20.979h-2.458l-11.432-16.472h-.205v16.472h-2.54v-20.979h2.458l11.473,16.512h.205v-16.512h2.5Z"/>
      <path d="m445.988,141.529h-2.664l7.703-20.979h2.623l7.703,20.979h-2.663l-6.269-17.66h-.164l-6.269,17.66Zm.983-8.195h10.735v2.253h-10.735v-2.253Z"/>
      <path d="m472.744,141.529v-20.979h2.417v7.744h.205c.178-.273.425-.623.743-1.05.318-.427.775-.809,1.373-1.147.598-.338,1.409-.507,2.433-.507,1.325,0,2.493.332,3.503.994,1.01.663,1.799,1.602,2.366,2.817.566,1.216.85,2.65.85,4.302,0,1.667-.284,3.109-.85,4.328-.567,1.219-1.353,2.161-2.356,2.827-1.004.666-2.162.999-3.473.999-1.011,0-1.82-.169-2.428-.507-.608-.338-1.076-.724-1.403-1.158-.328-.434-.581-.794-.758-1.081h-.287v2.417h-2.335Zm2.376-7.867c0,1.188.174,2.235.522,3.14.348.905.857,1.612,1.526,2.121.669.509,1.488.763,2.458.763,1.011,0,1.856-.268,2.536-.804.679-.536,1.191-1.26,1.537-2.172.345-.912.517-1.927.517-3.047,0-1.106-.169-2.105-.507-2.996-.338-.891-.847-1.598-1.526-2.121-.68-.522-1.532-.783-2.556-.783-.983,0-1.81.248-2.479.743-.669.495-1.175,1.185-1.516,2.069-.342.885-.512,1.914-.512,3.088Z"/>
      <path d="m494.952,141.897c-.997,0-1.902-.189-2.715-.568-.812-.379-1.458-.929-1.936-1.649-.478-.72-.717-1.593-.717-2.617,0-.901.177-1.634.533-2.197.355-.563.83-1.005,1.424-1.326.594-.321,1.251-.562,1.972-.722.721-.161,1.446-.289,2.177-.384.956-.123,1.733-.217,2.331-.282s1.035-.176,1.311-.333c.277-.157.415-.43.415-.819v-.082c0-1.011-.275-1.796-.825-2.356s-1.381-.84-2.494-.84c-1.154,0-2.059.252-2.715.758-.655.505-1.116,1.045-1.383,1.619l-2.294-.82c.41-.956.958-1.702,1.644-2.238.687-.536,1.438-.912,2.253-1.127.816-.215,1.62-.323,2.413-.323.505,0,1.087.06,1.747.179.659.12,1.297.364,1.916.732.618.369,1.132.925,1.542,1.67.41.744.615,1.741.615,2.991v10.367h-2.417v-2.131h-.123c-.164.342-.437.707-.819,1.096-.383.389-.891.721-1.526.994s-1.41.41-2.325.41Zm.369-2.171c.956,0,1.764-.188,2.423-.563.659-.375,1.157-.86,1.495-1.455.338-.594.507-1.219.507-1.875v-2.213c-.103.123-.326.234-.671.333-.345.099-.741.185-1.188.256s-.881.133-1.301.184-.76.094-1.019.128c-.628.082-1.214.213-1.757.394-.543.181-.98.451-1.312.81-.331.358-.497.845-.497,1.459,0,.84.312,1.474.937,1.9.625.427,1.419.64,2.382.64Z"/>
      <path d="m506.588,141.529v-15.734h2.336v2.376h.164c.287-.779.806-1.41,1.557-1.895.751-.485,1.598-.728,2.541-.728.177,0,.399.003.666.01.267.007.468.017.604.031v2.458c-.082-.021-.268-.053-.558-.097-.291-.044-.596-.067-.917-.067-.765,0-1.446.159-2.043.477-.598.317-1.069.754-1.414,1.311-.345.557-.518,1.19-.518,1.9v9.957h-2.417Z"/>
      <path d="m523.223,141.856c-1.475,0-2.745-.348-3.811-1.045-1.065-.696-1.885-1.656-2.458-2.878-.574-1.222-.86-2.619-.86-4.189,0-1.598.295-3.01.886-4.236.59-1.226,1.417-2.185,2.479-2.878,1.062-.693,2.303-1.04,3.724-1.04,1.106,0,2.104.205,2.991.615s1.615.983,2.182,1.721c.566.738.918,1.598,1.055,2.582h-2.417c-.184-.717-.592-1.354-1.224-1.911-.631-.556-1.48-.834-2.545-.834-.942,0-1.767.244-2.474.732-.707.488-1.257,1.174-1.649,2.059-.393.885-.589,1.921-.589,3.109,0,1.216.193,2.274.579,3.176s.932,1.602,1.639,2.1c.707.499,1.538.748,2.494.748.628,0,1.199-.109,1.711-.328.512-.219.946-.533,1.301-.943.355-.41.608-.901.758-1.475h2.417c-.137.929-.473,1.763-1.009,2.504s-1.243,1.328-2.121,1.762-1.896.65-3.058.65Z"/>
      <path d="m539.326,141.856c-1.42,0-2.665-.338-3.734-1.014-1.069-.676-1.902-1.622-2.499-2.837-.598-1.215-.896-2.636-.896-4.261,0-1.639.299-3.069.896-4.292.597-1.222,1.43-2.171,2.499-2.848s2.313-1.014,3.734-1.014,2.665.338,3.734,1.014,1.902,1.625,2.5,2.848c.597,1.223.896,2.653.896,4.292,0,1.625-.299,3.046-.896,4.261-.598,1.216-1.431,2.162-2.5,2.837-1.069.676-2.313,1.014-3.734,1.014Zm0-2.171c1.079,0,1.967-.277,2.664-.83.696-.553,1.212-1.281,1.546-2.182.335-.901.502-1.878.502-2.93s-.167-2.032-.502-2.94c-.334-.908-.85-1.642-1.546-2.202-.697-.56-1.584-.84-2.664-.84s-1.967.28-2.663.84c-.697.56-1.212,1.294-1.547,2.202-.335.908-.502,1.889-.502,2.94s.167,2.028.502,2.93c.334.901.85,1.629,1.547,2.182.696.553,1.584.83,2.663.83Z"/>
      <path d="m556.084,141.856c-1.311,0-2.469-.333-3.473-.999s-1.789-1.608-2.356-2.827c-.567-1.219-.85-2.662-.85-4.328,0-1.652.283-3.086.85-4.302.567-1.215,1.355-2.154,2.366-2.817,1.011-.662,2.179-.994,3.503-.994,1.024,0,1.835.169,2.433.507.598.338,1.055.72,1.373,1.147.317.427.565.777.743,1.05h.205v-7.744h2.417v20.979h-2.335v-2.417h-.287c-.178.287-.431.647-.758,1.081-.328.434-.795.82-1.403,1.158s-1.417.507-2.428.507Zm.328-2.171c.97,0,1.789-.254,2.458-.763s1.178-1.215,1.526-2.121c.348-.905.522-1.951.522-3.14,0-1.174-.171-2.204-.512-3.088-.341-.884-.847-1.574-1.516-2.069s-1.496-.743-2.479-.743c-1.024,0-1.876.261-2.556.783-.68.522-1.188,1.229-1.526,2.121-.338.891-.507,1.89-.507,2.996,0,1.12.172,2.136.517,3.047.345.912.857,1.636,1.537,2.172s1.524.804,2.535.804Z"/>
      <path d="m574.645,141.856c-1.516,0-2.822-.336-3.918-1.009-1.096-.672-1.939-1.615-2.53-2.827-.591-1.212-.886-2.624-.886-4.236s.295-3.034.886-4.267c.59-1.232,1.417-2.195,2.479-2.889,1.062-.693,2.303-1.04,3.724-1.04.82,0,1.629.137,2.428.41.799.273,1.526.715,2.182,1.327.655.611,1.178,1.419,1.567,2.422.39,1.004.584,2.24.584,3.708v1.024h-12.128v-2.09h9.67c0-.888-.176-1.68-.527-2.376-.352-.697-.85-1.246-1.496-1.649-.646-.403-1.405-.604-2.279-.604-.963,0-1.794.237-2.494.712-.7.475-1.238,1.091-1.613,1.849-.376.758-.563,1.571-.563,2.438v1.393c0,1.188.207,2.194.62,3.017.413.823.989,1.448,1.726,1.875.738.427,1.595.64,2.571.64.635,0,1.21-.09,1.726-.271.515-.181.961-.454,1.336-.819s.666-.821.871-1.368l2.335.656c-.246.792-.659,1.487-1.24,2.084s-1.297,1.062-2.151,1.393c-.854.331-1.813.497-2.878.497Z"/>
    </g>
    <g>
      <rect x="501.065" y="65.496" width="6.453" height="38.717"/>
      <rect x="482.023" y="65.496" width="2.581" height="38.717"/>
      <rect x="494.202" y="65.496" width="2.581" height="38.717"/>
      <rect x="490.441" y="65.496" width="1.291" height="38.717"/>
      <rect x="475.254" y="65.496" width="3.872" height="38.717"/>
    </g>
    <g>
      <path d="m973.938,256.753v-20.979h7.089c1.646,0,2.992.295,4.041.886,1.048.591,1.825,1.388,2.33,2.392.506,1.004.758,2.124.758,3.36s-.251,2.359-.753,3.37-1.275,1.815-2.319,2.412c-1.045.598-2.384.896-4.016.896h-5.081v-2.253h4.999c1.127,0,2.031-.195,2.714-.584.684-.389,1.18-.917,1.491-1.583.311-.666.466-1.419.466-2.259s-.155-1.591-.466-2.254c-.312-.662-.812-1.183-1.501-1.562s-1.604-.568-2.745-.568h-4.467v18.725h-2.54Z"/>
      <path d="m998.154,257.081c-1.421,0-2.665-.338-3.734-1.014-1.068-.676-1.901-1.622-2.499-2.837-.598-1.215-.896-2.636-.896-4.261,0-1.639.299-3.069.896-4.292.598-1.222,1.431-2.171,2.499-2.848,1.069-.676,2.313-1.014,3.734-1.014s2.665.338,3.733,1.014c1.069.676,1.902,1.625,2.5,2.848.597,1.223.896,2.653.896,4.292,0,1.625-.299,3.046-.896,4.261-.598,1.216-1.431,2.162-2.5,2.837-1.068.676-2.313,1.014-3.733,1.014Zm0-2.171c1.079,0,1.967-.277,2.663-.83.696-.553,1.212-1.281,1.547-2.182s.502-1.878.502-2.93-.167-2.032-.502-2.94-.851-1.642-1.547-2.202-1.584-.84-2.663-.84-1.967.28-2.663.84c-.697.56-1.213,1.294-1.547,2.202-.335.908-.502,1.889-.502,2.94s.167,2.028.502,2.93c.334.901.85,1.629,1.547,2.182.696.553,1.584.83,2.663.83Z"/>
      <path d="m1015.363,257.081c-1.421,0-2.665-.338-3.734-1.014-1.068-.676-1.901-1.622-2.499-2.837-.598-1.215-.896-2.636-.896-4.261,0-1.639.299-3.069.896-4.292.598-1.222,1.431-2.171,2.499-2.848,1.069-.676,2.313-1.014,3.734-1.014s2.665.338,3.733,1.014c1.069.676,1.902,1.625,2.5,2.848.597,1.223.896,2.653.896,4.292,0,1.625-.299,3.046-.896,4.261-.598,1.216-1.431,2.162-2.5,2.837-1.068.676-2.313,1.014-3.733,1.014Zm0-2.171c1.079,0,1.967-.277,2.663-.83.696-.553,1.212-1.281,1.547-2.182s.502-1.878.502-2.93-.167-2.032-.502-2.94-.851-1.642-1.547-2.202-1.584-.84-2.663-.84-1.967.28-2.663.84c-.697.56-1.213,1.294-1.547,2.202-.335.908-.502,1.889-.502,2.94s.167,2.028.502,2.93c.334.901.85,1.629,1.547,2.182.696.553,1.584.83,2.663.83Z"/>
      <path d="m1028.598,235.775v20.979h-2.418v-20.979h2.418Z"/>
    </g>
    <g>
      <path d="m663.888,358.741v-21.952h15.296c1.322,0,2.442.203,3.36.608.917.406,1.621.992,2.112,1.76s.736,1.707.736,2.816c0,.832-.16,1.605-.48,2.32-.32.715-.773,1.318-1.36,1.808-.587.491-1.275.864-2.064,1.12v.16c.896.128,1.691.432,2.384.912.693.48,1.237,1.11,1.632,1.888.395.779.592,1.712.592,2.8,0,1.365-.31,2.469-.928,3.312-.619.843-1.445,1.462-2.48,1.856-1.035.395-2.182.592-3.44.592h-15.36Zm2.816-12.416h11.328c.768,0,1.488-.144,2.16-.432s1.221-.72,1.648-1.296.64-1.301.64-2.176c0-1.131-.341-1.952-1.024-2.464-.683-.512-1.6-.768-2.752-.768h-12v7.136Zm0,9.984h12.256c1.258,0,2.272-.293,3.04-.88.768-.586,1.152-1.52,1.152-2.8,0-.896-.181-1.632-.544-2.208-.363-.576-.864-1.002-1.504-1.28-.64-.277-1.376-.416-2.208-.416h-12.192v7.584Z"/>
      <path d="m696.847,359.125c-.939,0-1.819-.085-2.64-.256-.822-.17-1.542-.437-2.16-.8-.619-.363-1.104-.843-1.456-1.44s-.528-1.333-.528-2.208c0-1.387.389-2.458,1.168-3.216.778-.757,1.861-1.301,3.248-1.632,1.386-.331,2.992-.533,4.816-.608,1.824-.075,3.771-.112,5.84-.112v-1.12c0-1.088-.182-1.925-.544-2.512-.363-.586-.987-1.002-1.872-1.248-.885-.245-2.096-.368-3.632-.368-1.302,0-2.374.118-3.216.352-.843.235-1.467.55-1.872.944-.406.395-.608.859-.608,1.392v.64h-2.464c-.021-.085-.038-.181-.048-.288-.011-.106-.016-.224-.016-.352,0-1.024.32-1.888.96-2.592s1.6-1.243,2.88-1.616c1.28-.373,2.869-.56,4.768-.56,1.813,0,3.328.181,4.544.544,1.216.363,2.128.96,2.736,1.792.608.832.912,1.984.912,3.456v8.448c0,.448.08.768.24.96s.453.288.88.288h1.568v1.664c-.363.128-.763.229-1.2.304-.438.074-.837.112-1.2.112-.79,0-1.371-.139-1.744-.416-.374-.277-.63-.645-.768-1.104-.139-.458-.219-.976-.24-1.552h-.224c-.597.683-1.333,1.254-2.208,1.712-.875.459-1.824.805-2.848,1.04-1.024.234-2.048.352-3.072.352Zm.352-2.112c.938,0,1.877-.117,2.816-.352.938-.234,1.792-.56,2.56-.976s1.387-.917,1.856-1.504c.469-.586.704-1.232.704-1.936v-1.536c-2.752,0-5.056.086-6.912.256-1.856.171-3.248.512-4.176,1.024-.928.512-1.392,1.301-1.392,2.368,0,.683.224,1.216.672,1.6.448.384,1.024.656,1.728.816.704.16,1.418.24,2.144.24Z"/>
      <path d="m712.975,358.741v-16.832h2.016l.224,3.2h.192c.128-.469.378-.981.752-1.536.373-.555.896-1.035,1.568-1.44.672-.405,1.499-.608,2.48-.608.341,0,.688.016,1.04.048.352.032.656.091.912.176v2.208h-1.472c-1.024,0-1.867.192-2.528.576-.662.384-1.184.891-1.568,1.52-.384.629-.662,1.296-.832,2-.171.704-.256,1.376-.256,2.016v8.672h-2.528Z"/>
      <path d="m733.583,359.125c-2.091,0-3.824-.331-5.2-.992s-2.411-1.648-3.104-2.96c-.693-1.312-1.04-2.928-1.04-4.848,0-1.941.347-3.562,1.04-4.864.693-1.301,1.733-2.283,3.12-2.944,1.386-.661,3.114-.992,5.184-.992,1.194,0,2.304.139,3.328.416,1.024.277,1.915.699,2.672,1.264.757.565,1.344,1.264,1.76,2.096s.624,1.803.624,2.912h-2.528c0-1.088-.283-1.968-.848-2.64-.565-.672-1.296-1.168-2.192-1.488-.896-.32-1.835-.48-2.816-.48-1.302,0-2.454.219-3.456.656-1.003.438-1.787,1.115-2.352,2.032-.565.918-.848,2.155-.848,3.712v.64c0,1.515.283,2.742.848,3.68.565.939,1.354,1.622,2.368,2.048,1.013.427,2.181.64,3.504.64.96,0,1.888-.16,2.784-.48s1.632-.821,2.208-1.504c.576-.683.864-1.546.864-2.592h2.464c0,1.11-.213,2.08-.64,2.912s-1.019,1.531-1.776,2.096c-.757.565-1.643.987-2.656,1.264-1.014.277-2.118.416-3.312.416Z"/>
      <path d="m755.151,359.125c-2.048,0-3.766-.336-5.152-1.008s-2.432-1.664-3.136-2.976-1.056-2.917-1.056-4.816c0-1.941.352-3.562,1.056-4.864s1.749-2.283,3.136-2.944c1.387-.661,3.104-.992,5.152-.992s3.765.331,5.152.992c1.387.662,2.432,1.643,3.136,2.944.704,1.301,1.056,2.923,1.056,4.864,0,1.899-.352,3.504-1.056,4.816-.704,1.312-1.749,2.304-3.136,2.976-1.387.672-3.104,1.008-5.152,1.008Zm0-2.112c1.301,0,2.453-.213,3.456-.64,1.002-.426,1.786-1.109,2.352-2.048.565-.938.848-2.165.848-3.68v-.64c0-1.557-.283-2.794-.848-3.712-.565-.917-1.349-1.594-2.352-2.032-1.003-.437-2.155-.656-3.456-.656s-2.454.219-3.456.656c-1.003.438-1.787,1.115-2.352,2.032-.565.918-.848,2.155-.848,3.712v.64c0,1.515.283,2.742.848,3.68.565.939,1.349,1.622,2.352,2.048,1.002.427,2.154.64,3.456.64Z"/>
      <path d="m776.559,359.125c-1.771,0-3.264-.331-4.48-.992s-2.144-1.648-2.784-2.96c-.64-1.312-.96-2.928-.96-4.848,0-1.941.325-3.562.976-4.864.65-1.301,1.589-2.283,2.816-2.944,1.227-.661,2.725-.992,4.496-.992.938,0,1.808.107,2.608.32.8.213,1.525.523,2.176.928.65.405,1.21.917,1.68,1.536h.192v-8.704h2.56v23.136h-2.016l-.288-2.72h-.224c-.747,1.067-1.686,1.851-2.816,2.352-1.131.501-2.443.752-3.936.752Zm.448-2.208c1.216,0,2.299-.213,3.248-.64s1.696-1.104,2.24-2.032c.544-.928.816-2.149.816-3.664v-.512c0-1.152-.155-2.128-.464-2.928-.31-.8-.742-1.45-1.296-1.952-.555-.501-1.216-.875-1.984-1.12-.768-.245-1.6-.368-2.496-.368-1.173,0-2.219.213-3.136.64-.917.427-1.638,1.099-2.16,2.016-.523.917-.784,2.144-.784,3.68v.576c0,1.515.256,2.736.768,3.664.512.928,1.221,1.6,2.128,2.016.906.416,1.946.624,3.12.624Z"/>
      <path d="m799.727,359.125c-2.006,0-3.712-.32-5.12-.96-1.408-.64-2.48-1.61-3.216-2.912-.736-1.301-1.104-2.944-1.104-4.928,0-1.941.363-3.568,1.088-4.88.726-1.312,1.787-2.293,3.185-2.944,1.396-.65,3.108-.976,5.136-.976,2.112,0,3.84.341,5.185,1.024,1.344.683,2.341,1.622,2.991,2.816.65,1.195.977,2.549.977,4.064v1.6h-15.872c.021,1.451.336,2.619.943,3.504.608.886,1.43,1.52,2.465,1.904,1.034.384,2.213.576,3.535.576,1.003,0,1.878-.123,2.624-.368.747-.245,1.382-.565,1.904-.96.522-.395.928-.821,1.216-1.28.288-.458.442-.901.464-1.328h2.528c-.021.683-.197,1.381-.528,2.096-.33.715-.848,1.365-1.552,1.952-.704.587-1.621,1.067-2.752,1.44-1.131.373-2.496.56-4.096.56Zm-6.752-10.048h13.216c0-1.066-.187-1.952-.56-2.656-.374-.704-.87-1.259-1.488-1.664-.619-.405-1.328-.699-2.128-.88s-1.616-.272-2.448-.272c-1.195,0-2.277.192-3.248.576-.971.384-1.744.976-2.32,1.776-.575.8-.917,1.84-1.023,3.12Z"/>
      <path d="m820.91,359.125c-1.771,0-3.264-.331-4.479-.992s-2.145-1.648-2.784-2.96-.96-2.928-.96-4.848c0-1.941.325-3.562.976-4.864s1.589-2.283,2.816-2.944c1.227-.661,2.725-.992,4.496-.992.938,0,1.808.107,2.607.32.801.213,1.525.523,2.177.928.65.405,1.21.917,1.68,1.536h.191v-8.704h2.561v23.136h-2.016l-.288-2.72h-.225c-.747,1.067-1.686,1.851-2.815,2.352-1.131.501-2.443.752-3.937.752Zm.448-2.208c1.216,0,2.299-.213,3.248-.64s1.696-1.104,2.24-2.032c.544-.928.815-2.149.815-3.664v-.512c0-1.152-.154-2.128-.464-2.928-.31-.8-.741-1.45-1.296-1.952s-1.216-.875-1.984-1.12c-.768-.245-1.6-.368-2.496-.368-1.173,0-2.219.213-3.136.64s-1.638,1.099-2.16,2.016c-.522.917-.783,2.144-.783,3.68v.576c0,1.515.256,2.736.768,3.664.512.928,1.221,1.6,2.128,2.016.906.416,1.946.624,3.12.624Z"/>
      <path d="m693.295,397.125c-2.091,0-3.824-.331-5.2-.992s-2.411-1.648-3.104-2.96c-.693-1.312-1.04-2.928-1.04-4.848,0-1.941.347-3.562,1.04-4.864.693-1.301,1.733-2.283,3.12-2.944,1.386-.661,3.114-.992,5.184-.992,1.194,0,2.304.139,3.328.416,1.024.277,1.915.699,2.672,1.264.757.565,1.344,1.264,1.76,2.096s.624,1.803.624,2.912h-2.528c0-1.088-.283-1.968-.848-2.64-.565-.672-1.296-1.168-2.192-1.488-.896-.32-1.835-.48-2.816-.48-1.302,0-2.454.219-3.456.656-1.003.438-1.787,1.115-2.352,2.032-.565.918-.848,2.155-.848,3.712v.64c0,1.515.283,2.742.848,3.68.565.939,1.354,1.622,2.368,2.048,1.013.427,2.181.64,3.504.64.96,0,1.888-.16,2.784-.48s1.632-.821,2.208-1.504c.576-.683.864-1.546.864-2.592h2.464c0,1.11-.213,2.08-.64,2.912s-1.019,1.531-1.776,2.096c-.757.565-1.643.987-2.656,1.264-1.014.277-2.118.416-3.312.416Z"/>
      <path d="m714.958,397.125c-2.005,0-3.712-.32-5.12-.96-1.408-.64-2.48-1.61-3.216-2.912s-1.104-2.944-1.104-4.928c0-1.941.363-3.568,1.088-4.88s1.787-2.293,3.184-2.944c1.397-.65,3.109-.976,5.136-.976,2.112,0,3.84.341,5.184,1.024,1.344.683,2.341,1.622,2.992,2.816.65,1.195.976,2.549.976,4.064v1.6h-15.872c.021,1.451.336,2.619.944,3.504.608.886,1.429,1.52,2.464,1.904,1.034.384,2.213.576,3.536.576,1.003,0,1.877-.123,2.624-.368.747-.245,1.381-.565,1.904-.96.522-.395.928-.821,1.216-1.28.288-.458.442-.901.464-1.328h2.528c-.021.683-.198,1.381-.528,2.096s-.848,1.365-1.552,1.952c-.704.587-1.622,1.067-2.752,1.44-1.131.373-2.496.56-4.096.56Zm-6.752-10.048h13.216c0-1.066-.187-1.952-.56-2.656-.374-.704-.87-1.259-1.488-1.664s-1.328-.699-2.128-.88c-.8-.181-1.616-.272-2.448-.272-1.195,0-2.278.192-3.248.576-.971.384-1.744.976-2.32,1.776-.576.8-.917,1.84-1.024,3.12Z"/>
      <path d="m728.526,396.741v-23.136h2.528v23.136h-2.528Z"/>
      <path d="m736.11,396.741v-23.136h2.528v23.136h-2.528Z"/>
      <path d="m754.574,396.741v-23.136h2.528v23.136h-2.528Z"/>
      <path d="m762.158,376.389v-2.784h2.528v2.784h-2.528Zm0,20.352v-16.832h2.528v16.832h-2.528Z"/>
      <path d="m769.742,396.741v-16.832h2.016l.224,3.008h.256c.64-.917,1.365-1.621,2.176-2.112.811-.49,1.653-.827,2.528-1.008.875-.181,1.707-.272,2.496-.272,1.493,0,2.741.213,3.744.64,1.003.427,1.765,1.099,2.288,2.016.522.917.784,2.134.784,3.648v10.912h-2.528v-10.432c0-1.002-.123-1.808-.368-2.416-.246-.608-.598-1.072-1.056-1.392-.459-.32-.992-.533-1.6-.64-.608-.106-1.264-.16-1.968-.16-1.067,0-2.091.229-3.072.688-.982.459-1.792,1.104-2.432,1.936-.64.832-.96,1.813-.96,2.944v9.472h-2.528Z"/>
      <path d="m799.918,397.125c-2.005,0-3.712-.32-5.119-.96-1.408-.64-2.48-1.61-3.217-2.912-.735-1.301-1.104-2.944-1.104-4.928,0-1.941.362-3.568,1.088-4.88.725-1.312,1.786-2.293,3.184-2.944,1.397-.65,3.109-.976,5.137-.976,2.111,0,3.84.341,5.184,1.024,1.344.683,2.341,1.622,2.992,2.816.65,1.195.976,2.549.976,4.064v1.6h-15.872c.021,1.451.336,2.619.944,3.504.608.886,1.429,1.52,2.464,1.904,1.034.384,2.213.576,3.536.576,1.003,0,1.877-.123,2.624-.368.746-.245,1.381-.565,1.904-.96.522-.395.928-.821,1.216-1.28.288-.458.442-.901.464-1.328h2.528c-.021.683-.198,1.381-.528,2.096-.331.715-.848,1.365-1.552,1.952-.704.587-1.622,1.067-2.752,1.44-1.131.373-2.496.56-4.097.56Zm-6.752-10.048h13.217c0-1.066-.188-1.952-.561-2.656-.373-.704-.869-1.259-1.488-1.664-.618-.405-1.327-.699-2.128-.88-.8-.181-1.615-.272-2.447-.272-1.195,0-2.278.192-3.248.576-.972.384-1.744.976-2.32,1.776-.576.8-.918,1.84-1.024,3.12Z"/>
    </g>
    <g>
      <g>
        <circle class="cls-13" cx="291.869" cy="199.768" r="68.8"/>
        <path d="m291.869,131.968c37.445,0,67.8,30.355,67.8,67.8s-30.355,67.8-67.8,67.8-67.8-30.355-67.8-67.8,30.355-67.8,67.8-67.8m0-2c-38.488,0-69.8,31.312-69.8,69.8s31.312,69.8,69.8,69.8,69.8-31.312,69.8-69.8-31.312-69.8-69.8-69.8h0Z"/>
      </g>
      <path class="cls-4" d="m235.444,208.612c0-13.973,10.702-24.793,24.544-24.808,13.819-.016,24.69,10.893,24.696,24.781.004,13.841-10.96,24.901-24.657,24.873-13.811-.028-24.582-10.914-24.582-24.846h0Z"/>
      <path class="cls-14" d="m279.444,168.612c0-13.973,10.702-24.793,24.544-24.808,13.819-.016,24.69,10.893,24.696,24.781.004,13.841-10.96,24.901-24.657,24.873-13.811-.028-24.582-10.914-24.582-24.846h0Z"/>
      <path class="cls-18" d="m287.444,227.612c0-13.973,10.702-24.793,24.544-24.808,13.819-.016,24.69,10.893,24.696,24.781.004,13.841-10.96,24.901-24.657,24.873-13.811-.028-24.582-10.914-24.582-24.846h0Z"/>
    </g>
    <g>
      <path class="cls-4" d="m658.375,205.534c0-13.973,10.702-24.793,24.544-24.808,13.819-.016,24.69,10.893,24.696,24.781.004,13.841-10.96,24.901-24.657,24.873-13.811-.028-24.582-10.914-24.582-24.846h0Z"/>
      <path class="cls-14" d="m721.875,177.534c0-13.973,10.702-24.793,24.544-24.808,13.819-.016,24.69,10.893,24.696,24.781.004,13.841-10.96,24.901-24.657,24.873-13.811-.028-24.582-10.914-24.582-24.846h0Z"/>
      <path class="cls-18" d="m785.375,205.534c0-13.973,10.702-24.793,24.544-24.808,13.819-.016,24.69,10.893,24.696,24.781.004,13.841-10.96,24.901-24.657,24.873-13.811-.028-24.582-10.914-24.582-24.846h0Z"/>
      <g>
        <rect x="688.266" y="195.011" width="3.514" height="21.085" transform="translate(1380.046 411.108) rotate(180)"/>
        <rect x="677.896" y="195.011" width="1.406" height="21.085" transform="translate(1357.197 411.108) rotate(180)"/>
        <rect x="684.528" y="195.011" width="1.406" height="21.085" transform="translate(1370.462 411.108) rotate(180)"/>
        <rect x="682.48" y="195.011" width=".703" height="21.085" transform="translate(1365.664 411.108) rotate(180)"/>
        <rect x="674.209" y="195.011" width="2.109" height="21.085" transform="translate(1350.527 411.108) rotate(180)"/>
      </g>
      <g>
        <rect x="737.709" y="167.011" width="3.514" height="21.085"/>
        <rect x="750.188" y="167.011" width="1.406" height="21.085"/>
        <rect x="743.556" y="167.011" width="1.406" height="21.085"/>
        <rect x="746.306" y="167.011" width=".703" height="21.085"/>
        <rect x="753.172" y="167.011" width="2.109" height="21.085"/>
      </g>
      <g>
        <rect x="815.266" y="195.011" width="3.514" height="21.085" transform="translate(1634.046 411.108) rotate(180)"/>
        <rect x="804.896" y="195.011" width="1.406" height="21.085" transform="translate(1611.197 411.108) rotate(180)"/>
        <rect x="807.48" y="195.011" width="1.406" height="21.085"/>
        <rect x="811.231" y="195.011" width=".703" height="21.085"/>
        <rect x="801.209" y="195.011" width="2.109" height="21.085" transform="translate(1604.527 411.108) rotate(180)"/>
      </g>
    </g>
    <g>
      <g>
        <path class="cls-23" d="m946.485,67.916c0-13.973,10.702-24.793,24.544-24.808,13.819-.016,24.69,10.893,24.696,24.781.004,13.841-10.96,24.901-24.657,24.873-13.811-.028-24.582-10.914-24.582-24.846h0Z"/>
        <g>
          <rect class="cls-13" x="976.376" y="57.392" width="3.514" height="21.085" transform="translate(1956.266 135.87) rotate(180)"/>
          <rect class="cls-13" x="966.006" y="57.392" width="1.406" height="21.085" transform="translate(1933.417 135.87) rotate(180)"/>
          <rect class="cls-13" x="972.638" y="57.392" width="1.406" height="21.085" transform="translate(1946.682 135.87) rotate(180)"/>
          <rect class="cls-13" x="970.59" y="57.392" width=".703" height="21.085" transform="translate(1941.883 135.87) rotate(180)"/>
          <rect class="cls-13" x="962.319" y="57.392" width="2.109" height="21.085" transform="translate(1926.747 135.87) rotate(180)"/>
        </g>
      </g>
      <g>
        <path class="cls-16" d="m1006.485,67.916c0-13.973,10.702-24.793,24.544-24.808,13.819-.016,24.69,10.893,24.696,24.781.004,13.841-10.96,24.901-24.657,24.873-13.811-.028-24.582-10.914-24.582-24.846h0Z"/>
        <g>
          <rect x="1022.319" y="57.392" width="3.514" height="21.085"/>
          <rect x="1034.798" y="57.392" width="1.406" height="21.085"/>
          <rect x="1028.165" y="57.392" width="1.406" height="21.085"/>
          <rect x="1030.916" y="57.392" width=".703" height="21.085"/>
          <rect x="1037.782" y="57.392" width="2.109" height="21.085"/>
        </g>
      </g>
      <g>
        <path class="cls-7" d="m946.485,127.916c0-13.973,10.702-24.793,24.544-24.808,13.819-.016,24.69,10.893,24.696,24.781.004,13.841-10.96,24.901-24.657,24.873-13.811-.028-24.582-10.914-24.582-24.846h0Z"/>
        <g>
          <rect class="cls-13" x="976.376" y="117.392" width="3.514" height="21.085" transform="translate(1956.266 255.87) rotate(180)"/>
          <rect class="cls-13" x="966.006" y="117.392" width="1.406" height="21.085" transform="translate(1933.417 255.87) rotate(180)"/>
          <rect class="cls-13" x="968.59" y="117.392" width="1.406" height="21.085"/>
          <rect class="cls-13" x="972.341" y="117.392" width=".703" height="21.085"/>
          <rect class="cls-13" x="962.319" y="117.392" width="2.109" height="21.085" transform="translate(1926.747 255.87) rotate(180)"/>
        </g>
      </g>
      <g>
        <path class="cls-10" d="m1055.724,127.916c0-13.973-10.702-24.793-24.544-24.808-13.819-.016-24.69,10.893-24.696,24.781-.004,13.841,10.96,24.901,24.657,24.873,13.811-.028,24.582-10.914,24.582-24.846h0Z"/>
        <g>
          <rect class="cls-13" x="1022.319" y="117.392" width="3.514" height="21.085"/>
          <rect class="cls-13" x="1034.798" y="117.392" width="1.406" height="21.085"/>
          <rect class="cls-13" x="1032.213" y="117.392" width="1.406" height="21.085" transform="translate(2065.832 255.87) rotate(180)"/>
          <rect class="cls-13" x="1029.165" y="117.392" width=".703" height="21.085" transform="translate(2059.034 255.87) rotate(180)"/>
          <rect class="cls-13" x="1037.782" y="117.392" width="2.109" height="21.085"/>
        </g>
      </g>
    </g>
    <circle cx="1070.669" cy="97.935" r="2"/>
    <circle cx="1080.669" cy="97.935" r="2"/>
    <circle cx="1090.669" cy="97.935" r="2"/>
    <g>
      <path d="m1171.626,358.741l11.231-21.952h3.36l11.231,21.952h-3.104l-2.88-5.632h-14.017l-2.88,5.632h-2.943Zm7.008-8h11.647l-3.552-7.04c-.149-.256-.32-.586-.512-.992-.192-.405-.39-.826-.592-1.264-.203-.437-.396-.848-.576-1.232-.182-.384-.336-.693-.464-.928h-.256c-.214.47-.465.998-.753,1.584-.287.587-.555,1.136-.8,1.648-.245.512-.442.907-.592,1.184l-3.552,7.04Z"/>
      <path d="m1208.298,359.125c-1.237,0-2.368-.101-3.393-.304-1.023-.203-1.903-.506-2.64-.912-.736-.405-1.307-.917-1.712-1.536-.405-.618-.608-1.354-.608-2.208,0-.106.005-.218.017-.336.01-.117.026-.218.048-.304h2.592c0,.043-.006.107-.016.192-.012.085-.017.16-.017.224,0,.854.288,1.509.864,1.968.576.459,1.307.768,2.192.928.885.16,1.797.24,2.735.24,1.003,0,1.937-.08,2.8-.24.864-.16,1.558-.448,2.08-.864s.784-.986.784-1.712c0-.811-.245-1.413-.735-1.808-.491-.395-1.195-.688-2.112-.88-.918-.192-2.027-.384-3.328-.576-1.109-.149-2.107-.341-2.992-.576-.886-.235-1.643-.533-2.271-.896-.63-.363-1.104-.821-1.425-1.376-.319-.555-.479-1.227-.479-2.016,0-.704.154-1.338.464-1.904.309-.565.778-1.05,1.408-1.456.629-.405,1.445-.715,2.448-.928,1.002-.213,2.208-.32,3.615-.32,1.237,0,2.325.112,3.265.336.938.224,1.723.549,2.352.976s1.104.928,1.424,1.504c.32.576.48,1.195.48,1.856v.224c0,.064-.011.16-.032.288h-2.592v-.16c0-.811-.235-1.429-.704-1.856-.47-.427-1.077-.725-1.824-.896-.747-.17-1.536-.256-2.368-.256-.555,0-1.146.032-1.775.096-.63.064-1.216.176-1.76.336-.545.16-.982.395-1.312.704-.331.31-.496.731-.496,1.264,0,.661.267,1.168.8,1.52.533.352,1.232.624,2.097.816.863.192,1.786.363,2.768.512,1.024.149,1.994.315,2.912.496.917.182,1.733.443,2.448.784.714.341,1.279.816,1.695,1.424s.624,1.403.624,2.384c0,.939-.181,1.739-.544,2.4-.362.661-.901,1.2-1.615,1.616-.716.416-1.584.726-2.608.928s-2.208.304-3.552.304Z"/>
      <path d="m1227.85,359.125c-1.237,0-2.368-.101-3.393-.304-1.023-.203-1.903-.506-2.64-.912-.736-.405-1.307-.917-1.712-1.536-.405-.618-.608-1.354-.608-2.208,0-.106.005-.218.017-.336.01-.117.026-.218.048-.304h2.592c0,.043-.006.107-.016.192-.012.085-.017.16-.017.224,0,.854.288,1.509.864,1.968.576.459,1.307.768,2.192.928.885.16,1.797.24,2.735.24,1.003,0,1.937-.08,2.8-.24.864-.16,1.558-.448,2.08-.864s.784-.986.784-1.712c0-.811-.245-1.413-.735-1.808-.491-.395-1.195-.688-2.112-.88-.918-.192-2.027-.384-3.328-.576-1.109-.149-2.107-.341-2.992-.576-.886-.235-1.643-.533-2.271-.896-.63-.363-1.104-.821-1.425-1.376-.319-.555-.479-1.227-.479-2.016,0-.704.154-1.338.464-1.904.309-.565.778-1.05,1.408-1.456.629-.405,1.445-.715,2.448-.928,1.002-.213,2.208-.32,3.615-.32,1.237,0,2.325.112,3.265.336.938.224,1.723.549,2.352.976s1.104.928,1.424,1.504c.32.576.48,1.195.48,1.856v.224c0,.064-.011.16-.032.288h-2.592v-.16c0-.811-.235-1.429-.704-1.856-.47-.427-1.077-.725-1.824-.896-.747-.17-1.536-.256-2.368-.256-.555,0-1.146.032-1.775.096-.63.064-1.216.176-1.76.336-.545.16-.982.395-1.312.704-.331.31-.496.731-.496,1.264,0,.661.267,1.168.8,1.52.533.352,1.232.624,2.097.816.863.192,1.786.363,2.768.512,1.024.149,1.994.315,2.912.496.917.182,1.733.443,2.448.784.714.341,1.279.816,1.695,1.424s.624,1.403.624,2.384c0,.939-.181,1.739-.544,2.4-.362.661-.901,1.2-1.615,1.616-.716.416-1.584.726-2.608.928s-2.208.304-3.552.304Z"/>
      <path d="m1246.345,359.125c-.938,0-1.818-.085-2.64-.256s-1.541-.437-2.16-.8-1.104-.843-1.456-1.44c-.352-.597-.527-1.333-.527-2.208,0-1.387.389-2.458,1.168-3.216.778-.757,1.86-1.301,3.248-1.632,1.386-.331,2.991-.533,4.815-.608s3.771-.112,5.84-.112v-1.12c0-1.088-.182-1.925-.544-2.512-.362-.586-.986-1.002-1.872-1.248-.885-.245-2.096-.368-3.632-.368-1.302,0-2.373.118-3.216.352-.843.235-1.467.55-1.872.944-.405.395-.608.859-.608,1.392v.64h-2.464c-.021-.085-.037-.181-.048-.288-.011-.106-.016-.224-.016-.352,0-1.024.319-1.888.96-2.592.64-.704,1.6-1.243,2.88-1.616s2.869-.56,4.768-.56c1.813,0,3.328.181,4.544.544,1.217.363,2.128.96,2.736,1.792s.912,1.984.912,3.456v8.448c0,.448.08.768.24.96s.453.288.88.288h1.567v1.664c-.362.128-.763.229-1.199.304-.438.074-.838.112-1.2.112-.79,0-1.371-.139-1.744-.416s-.63-.645-.768-1.104c-.14-.458-.22-.976-.24-1.552h-.225c-.597.683-1.333,1.254-2.208,1.712-.875.459-1.823.805-2.848,1.04-1.023.234-2.048.352-3.072.352Zm.353-2.112c.938,0,1.877-.117,2.815-.352.938-.234,1.792-.56,2.561-.976.768-.416,1.387-.917,1.855-1.504.47-.586.704-1.232.704-1.936v-1.536c-2.752,0-5.056.086-6.912.256-1.855.171-3.248.512-4.176,1.024-.928.512-1.392,1.301-1.392,2.368,0,.683.224,1.216.672,1.6.448.384,1.023.656,1.728.816.704.16,1.419.24,2.145.24Z"/>
      <path d="m1263.849,364.725c-.427,0-.843-.027-1.248-.08s-.8-.123-1.184-.208v-1.824h1.664c1.109,0,1.989-.123,2.64-.368.65-.246,1.179-.651,1.584-1.216.405-.565.821-1.328,1.248-2.288l-8.352-16.832h2.848l4.32,9.024c.213.384.458.891.736,1.52.276.629.57,1.28.88,1.952.309.672.581,1.264.815,1.776h.225c.085-.277.213-.64.384-1.088.17-.448.362-.938.576-1.472.213-.533.426-1.066.64-1.6.213-.533.405-1.002.576-1.408l3.616-8.704h2.655l-7.136,16.704c-.47,1.045-.928,1.957-1.376,2.736s-.944,1.418-1.488,1.92c-.544.501-1.189.869-1.936,1.104-.747.235-1.643.352-2.688.352Z"/>
      <path d="m1280.329,351.413v-2.816h10.111v2.816h-10.111Z"/>
      <path d="m1294.568,358.741v-16.832h2.016l.225,3.2h.191c.128-.469.379-.981.752-1.536.373-.555.896-1.035,1.568-1.44s1.498-.608,2.479-.608c.342,0,.688.016,1.04.048.353.032.656.091.912.176v2.208h-1.472c-1.024,0-1.867.192-2.528.576s-1.184.891-1.567,1.52c-.385.629-.662,1.296-.832,2-.171.704-.256,1.376-.256,2.016v8.672h-2.528Z"/>
      <path d="m1315.271,359.125c-2.005,0-3.712-.32-5.119-.96-1.408-.64-2.48-1.61-3.217-2.912-.735-1.301-1.104-2.944-1.104-4.928,0-1.941.362-3.568,1.088-4.88.725-1.312,1.786-2.293,3.184-2.944,1.397-.65,3.109-.976,5.137-.976,2.111,0,3.84.341,5.184,1.024,1.344.683,2.341,1.622,2.992,2.816.65,1.195.976,2.549.976,4.064v1.6h-15.872c.021,1.451.336,2.619.944,3.504.608.886,1.429,1.52,2.464,1.904,1.034.384,2.213.576,3.536.576,1.003,0,1.877-.123,2.624-.368.746-.245,1.381-.565,1.904-.96.522-.395.928-.821,1.216-1.28.288-.458.442-.901.464-1.328h2.528c-.021.683-.198,1.381-.528,2.096-.331.715-.848,1.365-1.552,1.952-.704.587-1.622,1.067-2.752,1.44-1.131.373-2.496.56-4.097.56Zm-6.752-10.048h13.217c0-1.066-.188-1.952-.561-2.656-.373-.704-.869-1.259-1.488-1.664-.618-.405-1.327-.699-2.128-.88-.8-.181-1.615-.272-2.447-.272-1.195,0-2.278.192-3.248.576-.972.384-1.744.976-2.32,1.776-.576.8-.918,1.84-1.024,3.12Z"/>
      <path d="m1334.983,359.125c-.938,0-1.818-.085-2.64-.256s-1.541-.437-2.16-.8-1.104-.843-1.456-1.44c-.352-.597-.527-1.333-.527-2.208,0-1.387.389-2.458,1.168-3.216.778-.757,1.86-1.301,3.248-1.632,1.386-.331,2.991-.533,4.815-.608s3.771-.112,5.84-.112v-1.12c0-1.088-.182-1.925-.544-2.512-.362-.586-.986-1.002-1.872-1.248-.885-.245-2.096-.368-3.632-.368-1.302,0-2.373.118-3.216.352-.843.235-1.467.55-1.872.944-.405.395-.608.859-.608,1.392v.64h-2.464c-.021-.085-.037-.181-.048-.288-.011-.106-.016-.224-.016-.352,0-1.024.319-1.888.96-2.592.64-.704,1.6-1.243,2.88-1.616s2.869-.56,4.768-.56c1.813,0,3.328.181,4.544.544,1.217.363,2.128.96,2.736,1.792s.912,1.984.912,3.456v8.448c0,.448.08.768.24.96s.453.288.88.288h1.567v1.664c-.362.128-.763.229-1.199.304-.438.074-.838.112-1.2.112-.79,0-1.371-.139-1.744-.416s-.63-.645-.768-1.104c-.14-.458-.22-.976-.24-1.552h-.225c-.597.683-1.333,1.254-2.208,1.712-.875.459-1.823.805-2.848,1.04-1.023.234-2.048.352-3.072.352Zm.353-2.112c.938,0,1.877-.117,2.815-.352.938-.234,1.792-.56,2.561-.976.768-.416,1.387-.917,1.855-1.504.47-.586.704-1.232.704-1.936v-1.536c-2.752,0-5.056.086-6.912.256-1.855.171-3.248.512-4.176,1.024-.928.512-1.392,1.301-1.392,2.368,0,.683.224,1.216.672,1.6.448.384,1.023.656,1.728.816.704.16,1.419.24,2.145.24Z"/>
      <path d="m1358.728,359.125c-1.771,0-3.264-.331-4.479-.992s-2.145-1.648-2.784-2.96-.96-2.928-.96-4.848c0-1.941.325-3.562.976-4.864s1.589-2.283,2.816-2.944c1.227-.661,2.725-.992,4.496-.992.938,0,1.808.107,2.607.32.801.213,1.525.523,2.177.928.65.405,1.21.917,1.68,1.536h.191v-8.704h2.561v23.136h-2.016l-.288-2.72h-.225c-.747,1.067-1.686,1.851-2.815,2.352-1.131.501-2.443.752-3.937.752Zm.448-2.208c1.216,0,2.299-.213,3.248-.64s1.696-1.104,2.24-2.032c.544-.928.815-2.149.815-3.664v-.512c0-1.152-.154-2.128-.464-2.928-.31-.8-.741-1.45-1.296-1.952s-1.216-.875-1.984-1.12c-.768-.245-1.6-.368-2.496-.368-1.173,0-2.219.213-3.136.64s-1.638,1.099-2.16,2.016c-.522.917-.783,2.144-.783,3.68v.576c0,1.515.256,2.736.768,3.664.512.928,1.221,1.6,2.128,2.016.906.416,1.946.624,3.12.624Z"/>
      <path d="m1374.439,364.725c-.427,0-.843-.027-1.248-.08s-.8-.123-1.184-.208v-1.824h1.664c1.108,0,1.988-.123,2.64-.368.65-.246,1.179-.651,1.584-1.216.405-.565.821-1.328,1.248-2.288l-8.353-16.832h2.849l4.319,9.024c.214.384.459.891.736,1.52.277.629.57,1.28.88,1.952s.581,1.264.816,1.776h.224c.085-.277.213-.64.384-1.088.171-.448.363-.938.576-1.472.213-.533.427-1.066.641-1.6.213-.533.404-1.002.575-1.408l3.616-8.704h2.656l-7.136,16.704c-.47,1.045-.929,1.957-1.376,2.736-.448.779-.944,1.418-1.488,1.92-.544.501-1.189.869-1.937,1.104-.746.235-1.643.352-2.688.352Z"/>
      <path d="m1235.369,402.437v-22.528h2.016l.288,2.72h.192c.746-1.088,1.675-1.877,2.784-2.368,1.108-.491,2.389-.736,3.84-.736,1.792,0,3.312.331,4.56.992,1.248.662,2.197,1.643,2.849,2.944.65,1.301.976,2.923.976,4.864,0,1.92-.32,3.536-.96,4.848s-1.563,2.299-2.768,2.96c-1.206.661-2.673.992-4.4.992-.96,0-1.856-.107-2.688-.32s-1.578-.528-2.239-.944c-.662-.416-1.228-.933-1.696-1.552h-.224v8.128h-2.528Zm8.864-7.52c1.173,0,2.208-.213,3.104-.64.896-.427,1.601-1.104,2.112-2.032.512-.928.768-2.138.768-3.632v-.576c0-1.536-.262-2.762-.784-3.68-.522-.917-1.242-1.589-2.159-2.016-.918-.427-1.974-.64-3.168-.64s-2.262.213-3.2.64c-.939.427-1.675,1.104-2.208,2.032-.534.928-.8,2.16-.8,3.696v.512c0,1.131.154,2.102.464,2.912.309.811.752,1.467,1.328,1.968.575.501,1.248.869,2.016,1.104s1.61.352,2.528.352Z"/>
      <path d="m1266.057,397.125c-2.048,0-3.766-.336-5.152-1.008s-2.432-1.664-3.136-2.976-1.056-2.917-1.056-4.816c0-1.941.352-3.562,1.056-4.864s1.749-2.283,3.136-2.944c1.387-.661,3.104-.992,5.152-.992s3.765.331,5.152.992c1.387.662,2.432,1.643,3.136,2.944s1.056,2.923,1.056,4.864c0,1.899-.352,3.504-1.056,4.816s-1.749,2.304-3.136,2.976c-1.388.672-3.104,1.008-5.152,1.008Zm0-2.112c1.301,0,2.453-.213,3.456-.64,1.003-.426,1.786-1.109,2.352-2.048.565-.938.849-2.165.849-3.68v-.64c0-1.557-.283-2.794-.849-3.712-.565-.917-1.349-1.594-2.352-2.032-1.003-.437-2.155-.656-3.456-.656s-2.453.219-3.456.656c-1.003.438-1.787,1.115-2.352,2.032-.565.918-.849,2.155-.849,3.712v.64c0,1.515.283,2.742.849,3.68.564.939,1.349,1.622,2.352,2.048,1.003.427,2.154.64,3.456.64Z"/>
      <path d="m1288.585,397.125c-2.049,0-3.766-.336-5.152-1.008s-2.432-1.664-3.136-2.976-1.057-2.917-1.057-4.816c0-1.941.353-3.562,1.057-4.864s1.749-2.283,3.136-2.944c1.387-.661,3.104-.992,5.152-.992s3.765.331,5.151.992c1.387.662,2.433,1.643,3.136,2.944.704,1.301,1.057,2.923,1.057,4.864,0,1.899-.353,3.504-1.057,4.816-.703,1.312-1.749,2.304-3.136,2.976s-3.104,1.008-5.151,1.008Zm0-2.112c1.301,0,2.452-.213,3.456-.64,1.002-.426,1.786-1.109,2.352-2.048.565-.938.848-2.165.848-3.68v-.64c0-1.557-.282-2.794-.848-3.712-.565-.917-1.35-1.594-2.352-2.032-1.004-.437-2.155-.656-3.456-.656s-2.454.219-3.456.656c-1.003.438-1.787,1.115-2.353,2.032-.565.918-.848,2.155-.848,3.712v.64c0,1.515.282,2.742.848,3.68.565.939,1.35,1.622,2.353,2.048,1.002.427,2.154.64,3.456.64Z"/>
      <path d="m1302.376,396.741v-23.136h2.528v23.136h-2.528Z"/>
      <path d="m1317.16,397.125c-1.237,0-2.368-.101-3.392-.304-1.024-.203-1.904-.506-2.641-.912-.735-.405-1.307-.917-1.712-1.536-.405-.618-.607-1.354-.607-2.208,0-.106.005-.218.016-.336.011-.117.026-.218.048-.304h2.593c0,.043-.006.107-.017.192-.011.085-.016.16-.016.224,0,.854.288,1.509.863,1.968.576.459,1.307.768,2.192.928.885.16,1.797.24,2.736.24,1.002,0,1.936-.08,2.8-.24.864-.16,1.557-.448,2.08-.864.522-.416.784-.986.784-1.712,0-.811-.246-1.413-.736-1.808-.491-.395-1.195-.688-2.112-.88s-2.026-.384-3.328-.576c-1.109-.149-2.106-.341-2.991-.576-.886-.235-1.644-.533-2.272-.896s-1.104-.821-1.424-1.376-.48-1.227-.48-2.016c0-.704.155-1.338.465-1.904.309-.565.778-1.05,1.407-1.456s1.445-.715,2.448-.928c1.003-.213,2.208-.32,3.616-.32,1.237,0,2.325.112,3.264.336s1.723.549,2.353.976c.629.427,1.104.928,1.424,1.504.32.576.479,1.195.479,1.856v.224c0,.064-.011.16-.031.288h-2.593v-.16c0-.811-.234-1.429-.703-1.856-.47-.427-1.078-.725-1.824-.896-.747-.17-1.536-.256-2.368-.256-.555,0-1.147.032-1.776.096s-1.216.176-1.76.336-.981.395-1.312.704c-.331.31-.496.731-.496,1.264,0,.661.267,1.168.8,1.52.533.352,1.231.624,2.096.816s1.787.363,2.769.512c1.023.149,1.994.315,2.911.496.917.182,1.733.443,2.448.784s1.28.816,1.696,1.424.624,1.403.624,2.384c0,.939-.182,1.739-.544,2.4-.363.661-.901,1.2-1.616,1.616s-1.584.726-2.608.928c-1.023.203-2.208.304-3.552.304Z"/>
    </g>
    <g>
      <g>
        <circle class="cls-13" cx="1279.912" cy="160.554" r="133.872"/>
        <path d="m1279.912,27.682c73.383,0,132.872,59.489,132.872,132.872s-59.489,132.872-132.872,132.872-132.872-59.489-132.872-132.872,59.489-132.872,132.872-132.872m0-2c-36.026,0-69.895,14.029-95.369,39.503-25.474,25.474-39.503,59.343-39.503,95.369s14.029,69.895,39.503,95.369c25.474,25.474,59.343,39.503,95.369,39.503s69.895-14.029,95.369-39.503c25.474-25.474,39.503-59.343,39.503-95.369s-14.029-69.895-39.503-95.369c-25.474-25.474-59.343-39.503-95.369-39.503h0Z"/>
      </g>
      <g class="cls-2">
        <path class="cls-6" d="m1305.095,105.191c30.559-.17,55.215,24.039,55.174,54.176-.032,30.795-23.795,54.598-54.614,54.704-29.813.105-54.955-25.093-54.874-54.996.081-29.602,24.388-53.722,54.306-53.884h.008Z"/>
        <g>
          <rect class="cls-13" x="1319.303" y="132.075" width="9.185" height="55.112" transform="translate(2647.791 319.262) rotate(180)"/>
          <rect class="cls-13" x="1292.197" y="132.075" width="3.674" height="55.112" transform="translate(2588.069 319.262) rotate(180)"/>
          <rect class="cls-13" x="1309.533" y="132.075" width="3.674" height="55.112" transform="translate(2622.741 319.262) rotate(180)"/>
          <rect class="cls-13" x="1304.181" y="132.075" width="1.837" height="55.112" transform="translate(2610.198 319.262) rotate(180)"/>
          <rect class="cls-13" x="1282.562" y="132.075" width="5.511" height="55.112" transform="translate(2570.634 319.262) rotate(180)"/>
        </g>
        <path class="cls-9" d="m1152.309,245.539c-1.011-30.438,24.808-57.886,55.473-58.973,32.433-1.147,59.67,23.088,61.573,53.272,2.297,36.39-24.414,62.851-56.513,64.022-33.221,1.21-59.399-24.227-60.53-58.32h-.004Z"/>
        <path class="cls-18" d="m1145.815,124.973c0-27.384,20.974-48.59,48.1-48.617,27.082-.032,48.386,21.349,48.398,48.566.008,27.126-21.48,48.801-48.323,48.745-27.066-.056-48.175-21.388-48.175-48.693h0Z"/>
        <path class="cls-19" d="m1323.101,48.582c.02,27.261-21.177,48.793-48.108,48.864-27.006.072-48.418-21.396-48.45-48.57-.032-27.257,21.177-48.785,48.16-48.876,26.942-.092,48.383,21.428,48.402,48.586l-.004-.004Z"/>
        <path class="cls-11" d="m1381.108,196.706c18.565.008,32.763,13.895,32.56,31.856-.203,17.901-14.831,32.365-32.628,32.262-17.538-.1-32.174-14.608-32.29-32.003-.115-18.036,14.074-32.118,32.357-32.114Z"/>
        <path class="cls-15" d="m1401.408,82.866c-.012,18.39-14.058,32.485-32.202,32.309-17.562-.167-31.875-14.62-31.943-32.254-.068-17.984,14.194-32.413,32.178-32.552,18.04-.143,31.979,14.031,31.967,32.497Z"/>
        <path class="cls-3" d="m1282.761,265.696c.012-18.462,13.688-32.055,32.198-31.995,17.809.056,31.887,14.142,31.943,31.951.056,18.267-13.863,32.17-32.234,32.194-18.705.028-31.919-13.29-31.907-32.154v.004Z"/>
        <g>
          <rect class="cls-13" x="1301.441" y="249.704" width="5.356" height="32.138"/>
          <rect class="cls-13" x="1308.94" y="249.704" width="2.143" height="32.138"/>
          <rect class="cls-13" x="1318.582" y="249.704" width="2.143" height="32.138"/>
          <rect class="cls-13" x="1315.368" y="249.704" width="1.071" height="32.138"/>
          <rect class="cls-13" x="1325.009" y="249.704" width="3.214" height="32.138"/>
        </g>
        <g>
          <rect class="cls-13" x="1224.572" y="217.843" width="9.124" height="54.742" transform="translate(2458.268 490.428) rotate(180)"/>
          <rect class="cls-13" x="1217.273" y="217.843" width="3.649" height="54.742" transform="translate(2438.196 490.428) rotate(180)"/>
          <rect class="cls-13" x="1200.85" y="217.843" width="3.649" height="54.742" transform="translate(2405.35 490.428) rotate(180)"/>
          <rect class="cls-13" x="1208.149" y="217.843" width="1.825" height="54.742" transform="translate(2418.123 490.428) rotate(180)"/>
          <rect class="cls-13" x="1188.077" y="217.843" width="5.474" height="54.742" transform="translate(2381.629 490.428) rotate(180)"/>
        </g>
        <g>
          <rect class="cls-13" x="1259.488" y="23.163" width="8.52" height="51.119"/>
          <rect class="cls-13" x="1252.672" y="23.163" width="3.408" height="51.119"/>
          <rect class="cls-13" x="1293.567" y="23.163" width="3.408" height="51.119"/>
          <rect class="cls-13" x="1274.823" y="23.163" width="3.408" height="51.119"/>
          <rect class="cls-13" x="1281.639" y="23.163" width="5.112" height="51.119"/>
        </g>
        <g>
          <rect x="1194.064" y="103.101" width="1.461" height="43.82"/>
          <rect x="1173.615" y="103.101" width="7.303" height="43.82"/>
          <rect x="1188.222" y="103.101" width="2.921" height="43.82"/>
          <rect x="1198.446" y="103.101" width="4.382" height="43.82"/>
          <rect x="1210.131" y="103.101" width="4.382" height="43.82"/>
        </g>
        <g>
          <rect class="cls-13" x="1387.974" y="215.237" width="4.509" height="27.055" transform="translate(2780.458 457.529) rotate(180)"/>
          <rect class="cls-13" x="1384.367" y="215.237" width="1.804" height="27.055" transform="translate(2770.538 457.529) rotate(180)"/>
          <rect class="cls-13" x="1376.25" y="215.237" width="1.804" height="27.055" transform="translate(2754.304 457.529) rotate(180)"/>
          <rect class="cls-13" x="1379.858" y="215.237" width=".902" height="27.055" transform="translate(2760.617 457.529) rotate(180)"/>
          <rect class="cls-13" x="1369.937" y="215.237" width="2.706" height="27.055" transform="translate(2742.58 457.529) rotate(180)"/>
        </g>
        <g>
          <rect x="1360.966" y="67.093" width="5.227" height="31.36"/>
          <rect x="1356.785" y="67.093" width="2.091" height="31.36"/>
          <rect x="1379.794" y="67.093" width="2.091" height="31.36"/>
          <rect x="1368.296" y="67.093" width="1.082" height="31.36"/>
          <rect x="1374.556" y="67.093" width="3.136" height="31.36"/>
        </g>
      </g>
    </g>
    <g>
      <g>
        <g>
          <rect x="421.886" y="207.052" width="128.518" height="2"/>
          <polygon points="548.07 216.03 561.886 208.052 548.07 200.074 548.07 216.03"/>
        </g>
        <path d="m548.952,209.172c-13.021,0-25.887-1.729-38.332-5.156-24.05-6.624-46.408-19.698-64.656-37.81l1.409-1.42c12.555,12.461,33.812,29.048,63.778,37.302,14.145,3.896,28.846,5.566,43.694,4.965l.081,1.998c-1.994.081-3.987.121-5.975.121Z"/>
      </g>
      <path d="m548.952,209.172c-13.021,0-25.887-1.729-38.332-5.156-24.05-6.624-46.408-19.698-64.656-37.81l1.409-1.42c12.555,12.461,33.812,29.048,63.778,37.302,14.145,3.896,28.846,5.566,43.694,4.965l.081,1.998c-1.994.081-3.987.121-5.975.121Z"/>
    </g>
    <g>
      <g>
        <g>
          <rect x="931.104" y="207.052" width="128.519" height="2"/>
          <polygon points="1057.288 216.03 1071.105 208.052 1057.288 200.074 1057.288 216.03"/>
        </g>
        <path d="m1058.17,209.172c-13.021,0-25.887-1.729-38.331-5.156-24.05-6.624-46.407-19.698-64.655-37.81l1.408-1.42c12.556,12.461,33.812,29.048,63.778,37.302,14.144,3.896,28.842,5.565,43.694,4.965l.08,1.998c-1.993.081-3.986.121-5.975.121Z"/>
      </g>
      <path d="m1058.17,209.172c-13.021,0-25.887-1.729-38.331-5.156-24.05-6.624-46.407-19.698-64.655-37.81l1.408-1.42c12.556,12.461,33.812,29.048,63.778,37.302,14.144,3.896,28.842,5.565,43.694,4.965l.08,1.998c-1.993.081-3.986.121-5.975.121Z"/>
    </g>
  </g>
</svg>