<?xml version="1.0" encoding="UTF-8"?>
<svg id="Layer_1" xmlns="http://www.w3.org/2000/svg" version="1.1" viewBox="0 0 100 100">
  <!-- Generator: Adobe Illustrator 30.2.1, SVG Export Plug-In . SVG Version: 2.1.1 Build 1)  -->
  <rect x="270.23" y="2.44" width="8.57" height="95.11"/>
  <rect x="304.92" y="2.44" width="4.94" height="95.11"/>
  <rect x="230.6" y="2.44" width="6.34" height="95.11"/>
  <rect x="255.55" y="2.44" width="4.29" height="95.11"/>
  <rect x="284.66" y="2.44" width="4.48" height="95.11"/>
  <rect x="245.77" y="2.44" width="3.17" height="95.11"/>
  <rect x="158.42" y="2.44" width="6.58" height="95.11"/>
  <rect x="188.17" y="2.44" width="9.88" height="95.11"/>
  <rect x="118.79" y="2.44" width="6.34" height="95.11"/>
  <rect x="143.74" y="2.44" width="4.29" height="95.11"/>
  <rect x="174.7" y="2.44" width="4.48" height="95.11"/>
  <rect x="133.95" y="2.44" width="3.17" height="95.11"/>
  <rect x="53.29" y="2.44" width="3.29" height="95.11"/>
  <rect x="82.22" y="2.44" width="4.94" height="95.11"/>
  <rect x="10.37" y="2.44" width="6.34" height="95.11"/>
  <rect x="44.31" y="2.44" width="4.29" height="95.11"/>
  <rect x="72.24" y="2.44" width="2.89" height="95.11"/>
  <rect x="32.17" y="2.44" width="3.17" height="95.11"/>
  <rect x="-58.42" y="2.44" width="6.58" height="95.11"/>
  <rect x="-28.68" y="2.44" width="9.88" height="95.11"/>
  <rect x="-98.05" y="2.44" width="6.34" height="95.11"/>
  <rect x="-73.11" y="2.44" width="4.29" height="95.11"/>
  <rect x="-37.67" y="2.44" width="4.48" height="95.11"/>
  <rect x="-82.89" y="2.44" width="3.17" height="95.11"/>
  <rect x="-166.71" y="2.44" width="4.75" height="95.11"/>
  <rect x="-134.9" y="2.44" width="5.99" height="95.11"/>
  <rect x="-208.17" y="2.44" width="6.34" height="95.11"/>
  <rect x="-185.28" y="2.44" width="6.34" height="95.11"/>
  <rect x="-152.27" y="2.44" width="3.17" height="95.11"/>
  <rect x="-197.01" y="2.44" width="3.17" height="95.11"/>
  <rect x="-285.87" y="2.44" width="6.8" height="95.11"/>
  <rect x="-250.56" y="2.44" width="11.53" height="95.11"/>
  <rect x="-318.29" y="2.44" width="4.44" height="95.11"/>
  <rect x="-302.39" y="2.44" width="6.34" height="95.11"/>
  <rect x="-269.92" y="2.44" width="8.7" height="95.11"/>
  <rect x="-415.87" y="2.44" width="7.51" height="95.11"/>
  <rect x="-374.37" y="2.44" width="6.34" height="95.11"/>
  <rect x="-394.4" y="2.45" width="6.02" height="95.11"/>
  <rect x="-435.18" y="2.44" width="5.36" height="95.11"/>
  <rect x="-359.09" y="2.44" width="3.17" height="95.11"/>
  <rect x="-502.63" y="2.44" width="5.72" height="95.11"/>
  <rect x="-530.4" y="2.44" width="6.34" height="95.11"/>
  <rect x="-549.18" y="2.45" width="6.34" height="95.11"/>
  <rect x="-517.92" y="2.45" width="3.17" height="95.11"/>
  <rect x="-487.49" y="2.45" width="3.17" height="95.11"/>
  <rect x="-479.43" y="2.44" width="9.51" height="95.11"/>
  <rect x="-670.18" y="2.44" width="15.85" height="95.11"/>
  <rect x="-613.89" y="2.44" width="6.34" height="95.11"/>
  <rect x="-625.55" y="2.45" width="6.34" height="95.11"/>
  <rect x="-639.3" y="2.45" width="3.17" height="95.11"/>
  <rect x="-600.43" y="2.44" width="9.51" height="95.11"/>
</svg>