<?xml version="1.0" encoding="UTF-8"?>
<svg id="Layer_1" xmlns="http://www.w3.org/2000/svg" version="1.1" viewBox="0 0 100 100">
  <!-- Generator: Adobe Illustrator 30.2.1, SVG Export Plug-In . SVG Version: 2.1.1 Build 1)  -->
  <defs>
    <style>
      .st0 {
        opacity: .4;
      }
    </style>
  </defs>
  <g class="st0">
    <rect x="277.97" y="2.44" width="9.51" height="95.11"/>
    <rect x="304.67" y="2.44" width="15.85" height="95.11"/>
    <rect x="241.26" y="2.44" width="6.34" height="95.11"/>
    <rect x="262.16" y="2.44" width="6.34" height="95.11"/>
    <rect x="297.17" y="2.44" width="3.17" height="95.11"/>
    <rect x="251.42" y="2.44" width="3.17" height="95.11"/>
  </g>
  <g class="st0">
    <rect x="165.83" y="2.44" width="9.51" height="95.11"/>
    <rect x="132.3" y="2.44" width="15.85" height="95.11"/>
    <rect x="185.18" y="2.44" width="6.34" height="95.11"/>
    <rect x="155.25" y="2.45" width="3.17" height="95.11"/>
    <rect x="124.37" y="2.44" width="3.17" height="95.11"/>
    <rect x="200.46" y="2.44" width="3.17" height="95.11"/>
  </g>
  <g class="st0">
    <rect x="46.79" y="2.44" width="15.85" height="95.11"/>
    <rect x="20.64" y="2.44" width="6.34" height="95.11"/>
    <rect x="10.37" y="2.45" width="6.34" height="95.11"/>
    <rect x="34.75" y="2.45" width="3.17" height="95.11"/>
    <rect x="72.06" y="2.45" width="3.17" height="95.11"/>
    <rect x="80.12" y="2.44" width="9.51" height="95.11"/>
  </g>
  <g class="st0">
    <rect x="-110.63" y="2.44" width="15.85" height="95.11"/>
    <rect x="-54.34" y="2.44" width="6.34" height="95.11"/>
    <rect x="-66" y="2.45" width="6.34" height="95.11"/>
    <rect x="-79.75" y="2.45" width="3.17" height="95.11"/>
    <rect x="-40.88" y="2.44" width="9.51" height="95.11"/>
  </g>
</svg>