<?xml version="1.0" encoding="UTF-8"?>
<svg id="Layer_1" data-name="Layer 1" xmlns="http://www.w3.org/2000/svg" viewBox="0 0 161.66 161.66">
  <defs>
    <style>
      .cls-1, .cls-2 {
        fill: #444;
      }

      .cls-2, .cls-3 {
        opacity: .2;
      }

      .cls-4 {
        fill: #ff0062;
      }

      .cls-5 {
        fill: #568aff;
      }

      .cls-6 {
        fill: #4679fa;
      }
    </style>
  </defs>
  <g>
    <g>
      <path class="cls-5" d="M73.16,145.46c-2.42,0-4.34-2-4.34-4.34l.08-79.22L30.71,23.63c-1.67-1.67-1.67-4.5,0-6.17,1.67-1.67,4.5-1.67,6.17,0l40.69,40.78-.08,82.81c.08,2.5-1.92,4.42-4.34,4.42h0Z"/>
      <path class="cls-6" d="M60.57,72.58c-1.08,0-2.25-.42-3.09-1.25L20.54,34.3c-1.67-1.67-1.67-4.5,0-6.17,1.67-1.67,4.5-1.67,6.17,0l36.94,37.03c1.67,1.67,1.67,4.5,0,6.17-.83.83-1.92,1.25-3.09,1.25Z"/>
      <path class="cls-5" d="M88.34,145.46c-2.42,0-4.34-2-4.34-4.34l.08-82.81,40.78-40.69c1.67-1.67,4.5-1.67,6.17,0,1.67,1.67,1.67,4.5,0,6.17l-38.28,38.19-.08,79.22c.08,2.33-1.92,4.25-4.34,4.25h0Z"/>
      <path class="cls-6" d="M101.09,72.58c-1.08,0-2.25-.42-3.09-1.25-1.67-1.67-1.67-4.5,0-6.17l36.94-36.94c1.67-1.67,4.5-1.67,6.17,0s1.67,4.5,0,6.17l-36.94,36.94c-.83.83-2,1.25-3.09,1.25Z"/>
    </g>
    <path class="cls-2" d="M88.04,145.46h0c-2.42,0-4.34-2-4.34-4.34,0,0,4.46-.16,6.36-3.96,1.2-2.41,2.39-42.04,2.39-42.04l-.07,31.99v14.09c.07,2.33-1.93,4.25-4.35,4.25"/>
    <path class="cls-2" d="M72.86,145.46h0c-2.42,0-4.34-2-4.34-4.34,0,0,4.46-.16,6.36-3.96,1.2-2.41,2.39-42.04,2.39-42.04l-.07,31.99v14.09c.07,2.33-1.93,4.25-4.35,4.25"/>
    <g>
      <g class="cls-3">
        <path class="cls-1" d="M100.95,72.05c-1.08,0-2.25-.42-3.09-1.25-1.67-1.67,2.63-.17,4.3-1.84,0,0,26.55-26.47,36.39-35.85,2.12-2.02,2.12-5.72,2.42-5.42,1.67,1.67,1.67,4.5,0,6.17l-36.94,36.94c-.83.83-2,1.25-3.09,1.25Z"/>
      </g>
      <g class="cls-3">
        <path class="cls-1" d="M91.35,61.98c-1.08,0-.45-1.42,1.22-3.09,0,0,26.55-26.47,36.39-35.85,2.12-2.02,2.12-5.72,2.42-5.42,1.67,1.67,1.67,4.5,0,6.17l-36.94,36.94c-.83.83-2,1.25-3.09,1.25Z"/>
      </g>
    </g>
    <g>
      <g class="cls-3">
        <path class="cls-1" d="M60.64,71.68c1.08,0,2.25-.42,3.09-1.25,1.67-1.67-2.63-.17-4.3-1.84,0,0-26.55-26.47-36.39-35.85-2.12-2.02-2.12-5.72-2.42-5.42-1.67,1.67-1.67,4.5,0,6.17l36.94,36.94c.83.83,2,1.25,3.09,1.25Z"/>
      </g>
      <g class="cls-3">
        <path class="cls-1" d="M70.25,61.6c1.08,0,.45-1.42-1.22-3.09,0,0-26.55-26.47-36.39-35.85-2.12-2.02-2.12-5.72-2.42-5.42-1.67,1.67-1.67,4.5,0,6.17l36.94,36.94c.83.83,2,1.25,3.09,1.25Z"/>
      </g>
    </g>
  </g>
  <g>
    <polygon class="cls-5" points="69.33 88.7 48.32 88.92 48.25 85.65 69.26 85.43 69.33 88.7"/>
    <rect class="cls-5" x="49.49" y="113.68" width="19.8" height="3.27" transform="translate(-2.5 1.32) rotate(-1.25)"/>
    <rect class="cls-5" x="90.72" y="127.24" width="19.8" height="3.27" transform="translate(-2.79 2.23) rotate(-1.25)"/>
    <rect class="cls-5" x="89.5" y="98.9" width="19.8" height="3.27" transform="translate(-2.17 2.19) rotate(-1.25)"/>
    <polygon class="cls-4" points="32.36 92.82 31.43 98.89 36.83 95.94 39.64 101.35 42.24 95.78 47.89 98.58 46.69 92.49 52.72 91.5 48.26 87.25 52.58 82.84 46.39 82.06 47.24 75.93 41.92 78.93 39.17 73.46 36.5 79.09 30.86 76.29 32.05 82.38 26.02 83.37 30.49 87.63 26.16 92.03 32.36 92.82"/>
    <polygon class="cls-4" points="33.58 121.12 32.72 127.26 38.05 124.25 40.93 129.72 43.46 124.09 49.11 126.89 47.91 120.8 53.94 119.81 49.55 115.62 53.87 111.22 47.61 110.37 48.53 104.3 43.2 107.17 40.39 101.77 37.72 107.4 32.08 104.6 33.34 110.75 27.31 111.74 31.71 115.94 27.38 120.34 33.58 121.12"/>
    <polygon class="cls-4" points="126.49 123.11 127.41 116.91 122.08 119.92 119.2 114.45 116.66 120.08 111.02 117.28 112.15 123.44 106.12 124.43 110.58 128.55 106.2 133.02 112.52 133.8 111.54 139.94 116.93 137 119.74 142.4 122.41 136.77 128.05 139.57 126.79 133.42 132.82 132.43 128.36 128.3 132.75 123.83 126.49 123.11"/>
    <polygon class="cls-4" points="125.2 94.74 126.19 88.6 120.79 91.54 117.98 86.14 115.38 91.71 109.73 88.91 110.86 95.06 104.9 96.12 109.36 100.24 104.98 104.71 111.23 105.43 110.32 111.63 115.64 108.63 118.45 114.03 121.12 108.39 126.76 111.19 125.57 105.11 131.6 104.12 127.07 99.93 131.46 95.46 125.2 94.74"/>
  </g>
</svg>