<?xml version="1.0" encoding="UTF-8"?>
<svg id="Layer_1" data-name="Layer 1" xmlns="http://www.w3.org/2000/svg" viewBox="0 0 161.66 161.66">
  <defs>
    <style>
      .cls-1 {
        fill: #fff;
      }

      .cls-2 {
        fill: #568aff;
      }
    </style>
  </defs>
  <path class="cls-2" d="M138.46,72.79l-14.45,7.2-14.1-9.38v-31.89l-31.38-18.09-31.37,18.09v31.98l-27.68,15.96v36.23l31.37,18.13,10.23-5.91,7.42-4.29,13.74-7.93v-31.95l24.02-13.85,14.56,9.64-.5,15.36h7.45l.5-15.93,13.93-6.93-3.73-6.44ZM102.46,70.68l-.04.03-3.75,2.17-20.15,11.62-23.93-13.82v-27.65l23.93-13.82,23.94,13.82v27.65Z"/>
  <path class="cls-1" d="M78.53,29.2l-23.93,13.82v27.65l23.93,13.82,20.15-11.62,3.75-2.17.04-.03v-27.65l-23.94-13.82ZM63.55,65.97h-4.96v-15.69h4.96v15.69ZM80.93,78.87l-2.48-4.3,13.59-7.84,2.49,4.29-13.6,7.85Z"/>
  <polygon class="cls-1" points="74.81 90.97 74.81 118.63 50.84 132.45 26.92 118.63 26.92 90.97 50.84 77.15 74.81 90.97"/>
  <g>
    <rect class="cls-2" x="56.45" y="82.27" width="4.96" height="15.69" transform="translate(-48.58 96.09) rotate(-60)"/>
    <rect class="cls-2" x="31.03" y="96.95" width="4.96" height="15.69"/>
    <rect class="cls-2" x="51.08" y="116.99" width="15.69" height="4.96" transform="translate(-51.83 45.46) rotate(-29.99)"/>
  </g>
  <g>
    <rect class="cls-2" x="58.59" y="50.28" width="4.96" height="15.69"/>
    <polygon class="cls-2" points="94.53 71.02 80.93 78.87 78.45 74.57 92.04 66.73 94.53 71.02"/>
  </g>
</svg>