<?xml version="1.0" encoding="UTF-8"?>
<svg id="Layer_1" data-name="Layer 1" xmlns="http://www.w3.org/2000/svg" viewBox="0 0 161.66 161.66">
  <defs>
    <style>
      .cls-1 {
        fill: #fff1d2;
        stroke: #ffc700;
        stroke-miterlimit: 10;
      }

      .cls-2 {
        fill: #fff;
      }

      .cls-3 {
        fill: #568aff;
      }

      .cls-4 {
        fill: #ffc700;
      }
    </style>
  </defs>
  <g>
    <path class="cls-3" d="M127.56,69.45l-14.45,7.2-14.1-9.38v-31.89l-31.38-18.09-31.37,18.09v31.98l-27.68,15.96v36.23l31.37,18.13,10.23-5.91,7.42-4.29,13.74-7.93v-31.95l24.02-13.85,14.56,9.64-.5,15.36h7.45l.5-15.93,13.93-6.93-3.73-6.44ZM91.55,67.34l-.04.03-3.75,2.17-20.15,11.62-23.93-13.82v-27.65l23.93-13.82,23.94,13.82v27.65Z"/>
    <path class="cls-2" d="M67.62,25.86l-23.93,13.82v27.65l23.93,13.82,20.15-11.62,3.75-2.17.04-.03v-27.65l-23.94-13.82ZM52.64,62.63h-4.96v-15.69h4.96v15.69ZM70.02,75.53l-2.48-4.3,13.59-7.84,2.49,4.29-13.6,7.85Z"/>
    <polygon class="cls-2" points="63.9 87.63 63.9 115.29 39.94 129.11 16.01 115.29 16.01 87.63 39.94 73.81 63.9 87.63"/>
    <g>
      <rect class="cls-3" x="45.54" y="78.93" width="4.96" height="15.69" transform="translate(-51.14 84.98) rotate(-60)"/>
      <rect class="cls-3" x="20.12" y="93.61" width="4.96" height="15.69"/>
      <rect class="cls-3" x="40.18" y="113.65" width="15.69" height="4.96" transform="translate(-51.62 39.56) rotate(-29.99)"/>
    </g>
    <g>
      <rect class="cls-3" x="47.68" y="46.94" width="4.96" height="15.69"/>
      <polygon class="cls-3" points="83.62 67.68 70.02 75.53 67.54 71.23 81.13 63.39 83.62 67.68"/>
    </g>
  </g>
  <g>
    <path class="cls-1" d="M151.28,70.86v63.57c0,1.96-1.59,3.55-3.55,3.55h-22.97l-8.8,8.8-8.8-8.8h-22.96c-1.96,0-3.55-1.59-3.55-3.55v-63.53c0-1.96,1.59-3.55,3.55-3.55h63.58c1.94,0,3.5,1.57,3.5,3.5Z"/>
    <path class="cls-4" d="M119.74,107.79l-8.24-4.94v-14.25h3.56v12.46l7.31,4.34c-.97.66-1.88,1.47-2.64,2.37M116.44,119.28c-1.14.16-2.24.23-3.47.16-9.25-.51-17.01-7.69-17.98-16.9-1.28-12.12,8.83-22.24,20.95-20.95,9.21.97,16.39,8.73,16.9,17.98.07,1.23,0,2.33-.16,3.47,1.64.24,3.16.76,4.56,1.52.24-1.33.38-2.68.38-4.08,0-14-12.28-25.27-26.6-23.57-10.85,1.28-19.56,10.06-20.74,20.92-1.55,14.23,9.59,26.39,23.6,26.39,1.4,0,2.75-.14,4.08-.38-.76-1.4-1.28-2.92-1.52-4.56M128.12,107.6v7.12h-7.12v4.75h7.12v7.12h4.75v-7.12h7.12v-4.75h-7.12v-7.12h-4.75Z"/>
  </g>
</svg>