<?xml version="1.0" encoding="UTF-8"?>
<svg id="Layer_1" data-name="Layer 1" xmlns="http://www.w3.org/2000/svg" viewBox="0 0 161.66 161.66">
  <defs>
    <style>
      .cls-1 {
        opacity: .54;
      }
    </style>
  </defs>
  <g class="cls-1">
    <polygon points="72.71 81.57 62.53 89.27 61.32 87.7 71.5 80 72.71 81.57"/>
  </g>
  <g class="cls-1">
    <rect x="71.47" y="97.16" width="12.02" height="1.99" transform="translate(-43.87 67.96) rotate(-37.74)"/>
  </g>
  <g class="cls-1">
    <rect x="96.49" y="88.89" width="12.02" height="1.99" transform="translate(-33.57 81.54) rotate(-37.74)"/>
  </g>
  <g class="cls-1">
    <rect x="85.66" y="75.5" width="12.02" height="1.99" transform="translate(-27.64 72.11) rotate(-37.74)"/>
  </g>
  <g>
    <path d="M94.44,106.68c-1.04.81-2.56.61-3.38-.43l-26.89-34.71-29.73-3.76c-1.35-.18-2.26-1.41-2.08-2.7.18-1.35,1.41-2.26,2.7-2.08l31.7,4.01,28.11,36.3c.81,1.04.61,2.56-.43,3.38h0Z"/>
    <path d="M64.09,79.05c-.49.35-1.14.58-1.81.51l-28.77-3.67c-1.35-.18-2.26-1.41-2.08-2.7.18-1.35,1.41-2.26,2.7-2.08l28.77,3.67c1.35.18,2.26,1.41,2.08,2.7-.06.62-.39,1.16-.89,1.57Z"/>
    <path d="M101.07,101.55c-1.04.81-2.56.61-3.38-.43l-28.11-36.3,4-31.69c.18-1.35,1.41-2.26,2.7-2.08,1.35.18,2.26,1.41,2.08,2.7l-3.75,29.72,26.89,34.71c.81,1.04.61,2.56-.43,3.38h0Z"/>
    <path d="M81.85,65.29c-.49.35-1.14.58-1.81.51-1.35-.18-2.26-1.41-2.08-2.7l3.66-28.76c.18-1.35,1.41-2.26,2.7-2.08,1.35.18,2.26,1.41,2.08,2.7l-3.66,28.76c-.06.62-.4,1.22-.89,1.57Z"/>
  </g>
  <polygon points="56.15 96.93 57.89 100.23 59.46 96.84 62.79 98.46 62.05 94.81 65.81 94.14 63.03 91.6 65.62 88.93 61.9 88.47 62.42 84.76 59.11 86.61 57.31 83.31 55.8 86.7 52.48 85.02 53.22 88.74 49.45 89.41 52.23 91.95 49.65 94.61 53.36 95.07 52.84 98.78 56.15 96.93"/>
  <polygon points="66.98 110.31 68.78 113.61 70.29 110.22 73.67 111.85 72.87 108.18 76.64 107.51 73.86 104.97 76.44 102.31 72.78 101.85 73.3 98.14 69.94 99.99 68.2 96.69 66.63 100.02 63.31 98.4 64.04 102.11 60.28 102.78 63.11 105.33 60.53 107.99 64.19 108.45 63.67 112.16 66.98 110.31"/>
  <polygon points="113.05 77.73 111.26 74.37 109.74 77.76 106.36 76.13 107.16 79.8 103.39 80.47 106.17 83.06 103.58 85.73 107.25 86.13 106.72 89.89 110.09 87.99 111.83 91.34 113.4 87.96 116.72 89.58 115.99 85.87 119.76 85.2 116.92 82.65 119.5 79.99 115.84 79.59 116.36 75.82 113.05 77.73"/>
  <polygon points="102.17 64.35 100.43 61 98.86 64.38 95.54 62.76 96.28 66.42 92.51 67.09 95.29 69.68 92.76 72.35 96.42 72.75 95.9 76.52 99.21 74.61 101 77.97 102.52 74.58 105.84 76.2 105.11 72.49 108.87 71.81 106.09 69.28 108.68 66.61 104.96 66.21 105.48 62.44 102.17 64.35"/>
</svg>