<?xml version="1.0" encoding="UTF-8"?>
<svg id="Layer_1" data-name="Layer 1" xmlns="http://www.w3.org/2000/svg" viewBox="0 0 161.66 161.66">
  <defs>
    <style>
      .cls-1 {
        fill: #fff;
      }

      .cls-2 {
        fill: #568aff;
      }
    </style>
  </defs>
  <g>
    <path class="cls-2" d="M127.56,69.45l-14.45,7.2-14.1-9.38v-31.89l-31.38-18.09-31.37,18.09v31.98l-27.68,15.96v36.23l31.37,18.13,10.23-5.91,7.42-4.29,13.74-7.93v-31.95l24.02-13.85,14.56,9.64-.5,15.36h7.45l.5-15.93,13.93-6.93-3.73-6.44ZM91.55,67.34l-.04.03-3.75,2.17-20.15,11.62-23.93-13.82v-27.65l23.93-13.82,23.94,13.82v27.65Z"/>
    <path class="cls-1" d="M67.62,25.86l-23.93,13.82v27.65l23.93,13.82,20.15-11.62,3.75-2.17.04-.03v-27.65l-23.94-13.82ZM52.64,62.63h-4.96v-15.69h4.96v15.69ZM70.02,75.53l-2.48-4.3,13.59-7.84,2.49,4.29-13.6,7.85Z"/>
    <polygon class="cls-1" points="63.9 87.63 63.9 115.29 39.94 129.11 16.01 115.29 16.01 87.63 39.94 73.81 63.9 87.63"/>
    <g>
      <rect class="cls-2" x="45.54" y="78.93" width="4.96" height="15.69" transform="translate(-51.14 84.98) rotate(-60)"/>
      <rect class="cls-2" x="20.12" y="93.61" width="4.96" height="15.69"/>
      <rect class="cls-2" x="40.18" y="113.65" width="15.69" height="4.96" transform="translate(-51.62 39.56) rotate(-29.99)"/>
    </g>
    <g>
      <rect class="cls-2" x="47.68" y="46.94" width="4.96" height="15.69"/>
      <polygon class="cls-2" points="83.62 67.68 70.02 75.53 67.54 71.23 81.13 63.39 83.62 67.68"/>
    </g>
  </g>
  <g>
    <circle class="cls-1" cx="110.47" cy="112.26" r="30.97"/>
    <path d="M118,121.86l-10.82-6.49v-18.71h4.68v16.38l9.61,5.71c-1.28.87-2.46,1.93-3.46,3.12M113.67,136.96c-1.5.21-2.95.31-4.56.22-12.15-.67-22.34-10.1-23.62-22.2-1.68-15.92,11.61-29.21,27.53-27.53,12.1,1.28,21.53,11.47,22.2,23.62.09,1.61,0,3.06-.22,4.56,2.15.31,4.15,1,5.99,2,.31-1.75.5-3.52.5-5.36,0-18.39-16.13-33.2-34.94-30.97-14.26,1.69-25.69,13.21-27.25,27.49-2.04,18.7,12.6,34.67,31,34.67,1.84,0,3.62-.19,5.36-.5-1-1.84-1.68-3.84-2-5.99M129.01,121.61v9.36h-9.36v6.24h9.36v9.36h6.24v-9.36h9.36v-6.24h-9.36v-9.36h-6.24Z"/>
  </g>
</svg>