<?xml version="1.0" encoding="UTF-8"?>
<svg id="Layer_1" data-name="Layer 1" xmlns="http://www.w3.org/2000/svg" viewBox="0 0 161.66 161.66">
  <defs>
    <style>
      .cls-1 {
        fill: #ffa000;
      }

      .cls-2 {
        fill: #606060;
      }

      .cls-3 {
        fill: #666;
      }

      .cls-4 {
        fill: #568aff;
      }

      .cls-5 {
        fill: #ffbe5f;
      }

      .cls-6 {
        fill: #999;
      }

      .cls-7 {
        fill: #4679fa;
      }
    </style>
  </defs>
  <g>
    <rect class="cls-2" x="83.27" y="88.08" width="5.45" height="2.92" transform="translate(-38.13 87.03) rotate(-45)"/>
    <rect class="cls-2" x="113.98" y="86.82" width="2.92" height="5.45" transform="translate(-29.51 107.83) rotate(-44.99)"/>
    <path class="cls-2" d="M105.42,111.51c-.81,0-1.46-.65-1.46-1.46v-14.06c0-2.93,1.14-5.68,3.21-7.74l1.07-1.07c.57-.57,1.5-.57,2.07,0,.57.57.57,1.5,0,2.07l-1.07,1.07c-1.52,1.52-2.35,3.53-2.35,5.68v14.06c0,.81-.65,1.46-1.46,1.46Z"/>
    <path class="cls-2" d="M95.95,111.51c-.81,0-1.46-.65-1.46-1.46v-14.06c0-2.11-.86-4.18-2.35-5.68l-1.07-1.07c-.57-.57-.57-1.5,0-2.07s1.5-.57,2.07,0l1.07,1.07c2.04,2.04,3.21,4.86,3.21,7.74v14.06c0,.81-.65,1.46-1.46,1.46Z"/>
    <g>
      <g>
        <path class="cls-1" d="M86.58,98.54c-.63.67-1.5.99-2.44,1.02-.88-.03-1.83-.35-2.56-1.04l-14-14.03,4.97-4.98,14.03,14.04c1.4,1.42,1.36,3.65,0,4.98Z"/>
        <path class="cls-7" d="M94.91,89.97c-.63.66-1.49.98-2.43,1.01-.89-.03-1.83-.35-2.56-1.02l-13.89-13.91,4.98-4.98,13.91,13.92c1.39,1.42,1.34,3.64-.01,4.98Z"/>
        <path class="cls-5" d="M72.56,79.52l-4.97,4.98-15.94-15.95c-1.4-1.42-1.36-3.65,0-4.98,1.42-1.39,3.65-1.34,4.98.01l15.92,15.94Z"/>
        <path class="cls-4" d="M81.01,71.06l-4.98,4.98-16.06-16.07c-1.4-1.42-1.36-3.65.01-4.98,1.42-1.4,3.64-1.36,4.98.01l16.04,16.06Z"/>
      </g>
      <g>
        <path class="cls-7" d="M106.44,89.89c-.67-.63-.99-1.5-1.02-2.44.03-.88.35-1.83,1.04-2.56l14.03-14,4.98,4.97-14.04,14.03c-1.42,1.4-3.65,1.36-4.98,0Z"/>
        <path class="cls-1" d="M115.02,98.21c-.66-.63-.98-1.49-1.01-2.43.03-.89.35-1.83,1.02-2.56l13.91-13.89,4.98,4.98-13.92,13.91c-1.42,1.39-3.64,1.34-4.98-.01Z"/>
        <path class="cls-4" d="M125.46,75.86l-4.98-4.97,15.95-15.94c1.42-1.4,3.65-1.36,4.98,0,1.39,1.42,1.34,3.65-.01,4.98l-15.94,15.92Z"/>
        <path class="cls-5" d="M133.92,84.32l-4.98-4.98,16.07-16.06c1.42-1.4,3.65-1.36,4.98.01,1.4,1.42,1.36,3.64-.01,4.98l-16.06,16.04Z"/>
      </g>
    </g>
    <path class="cls-7" d="M109.27,157.5c-.64.6-1.54,1.05-2.54,1.08-1.99-.02-3.54-1.62-3.52-3.53v-42.35c.03-1.99,1.64-3.53,3.54-3.51,1.99.02,3.54,1.62,3.52,3.53v42.35c.02.91-.37,1.84-1.01,2.44Z"/>
    <path class="cls-7" d="M97,157.5c-.64.6-1.54,1.05-2.54,1.08-1.99-.02-3.54-1.62-3.52-3.53v-42.35c.03-1.99,1.64-3.53,3.54-3.51,1.99.02,3.54,1.62,3.52,3.53v42.35c.02.91-.37,1.84-1.01,2.44Z"/>
    <g>
      <path class="cls-2" d="M105.42,101.03h-8.59c-.81,0-1.46-.65-1.46-1.46s.65-1.46,1.46-1.46h8.59c.81,0,1.46.65,1.46,1.46s-.65,1.46-1.46,1.46Z"/>
      <path class="cls-2" d="M105.42,106.3h-8.59c-.81,0-1.46-.65-1.46-1.46s.65-1.46,1.46-1.46h8.59c.81,0,1.46.65,1.46,1.46s-.65,1.46-1.46,1.46Z"/>
    </g>
  </g>
  <g>
    <path class="cls-2" d="M32.52,45.04c.57-.57,1.5-.57,2.07,0l9.94,9.94c2.07,2.07,3.21,4.82,3.21,7.74v1.52c0,.81-.65,1.46-1.46,1.46-.81,0-1.46-.65-1.46-1.46v-1.52c0-2.14-.83-4.16-2.35-5.68l-9.94-9.94c-.57-.57-.57-1.5,0-2.07Z"/>
    <path class="cls-2" d="M41.16,36.4c.57-.57,1.5-.57,2.07,0l9.94,9.94c1.49,1.49,3.56,2.35,5.68,2.35h1.52c.81,0,1.46.65,1.46,1.46s-.65,1.46-1.46,1.46h-1.52c-2.88,0-5.7-1.17-7.74-3.21l-9.94-9.94c-.57-.57-.57-1.5,0-2.07Z"/>
    <path class="cls-2" d="M40.05,50.39l6.08-6.08c.57-.57,1.5-.57,2.07,0s.57,1.5,0,2.07l-6.08,6.08c-.57.57-1.5.57-2.07,0s-.57-1.5,0-2.07Z"/>
    <path class="cls-3" d="M41.19,53.38c-.63.67-1.5.99-2.44,1.02-.88-.03-1.83-.35-2.56-1.04l-14-14.03,4.97-4.98,14.03,14.04c1.4,1.42,1.36,3.65,0,4.98Z"/>
    <path class="cls-3" d="M49.52,44.8c-.63.66-1.49.98-2.43,1.01-.89-.03-1.83-.35-2.56-1.02l-13.89-13.91,4.98-4.98,13.91,13.92c1.39,1.42,1.34,3.64-.01,4.98Z"/>
    <path class="cls-6" d="M27.17,34.35l-4.97,4.98-15.94-15.95c-1.4-1.42-1.36-3.65,0-4.98,1.42-1.39,3.65-1.34,4.98.01l15.92,15.94Z"/>
    <path class="cls-6" d="M35.63,25.89l-4.98,4.98L14.59,14.81c-1.4-1.42-1.36-3.65.01-4.98,1.42-1.4,3.64-1.36,4.98.01l16.04,16.06Z"/>
    <polygon points="44.15 79.11 45.71 84.33 48.92 79.93 53.22 83.2 53.2 77.75 58.79 77.86 55.53 73.43 59.99 70.35 54.8 68.63 56.6 63.46 51.33 65.17 49.7 59.93 46.56 64.35 42.29 61 42.28 66.53 36.69 66.42 39.95 70.85 35.49 73.93 40.68 75.65 38.88 80.82 44.15 79.11"/>
    <polygon points="63.95 57.62 65.65 62.79 68.74 58.3 73.13 61.45 72.96 56 78.55 55.96 75.16 51.62 79.54 48.42 74.3 46.84 75.95 41.63 70.74 43.49 68.95 38.29 65.94 42.8 61.57 39.57 61.72 45.1 56.13 45.15 59.52 49.49 55.14 52.69 60.39 54.26 58.73 59.48 63.95 57.62"/>
  </g>
</svg>