<?xml version="1.0" encoding="UTF-8"?>
<svg id="Layer_1" data-name="Layer 1" xmlns="http://www.w3.org/2000/svg" viewBox="0 0 161.66 161.66">
  <defs>
    <style>
      .cls-1 {
        fill: #ffa000;
      }

      .cls-2 {
        fill: #fff;
      }

      .cls-3 {
        fill: #568aff;
      }
    </style>
  </defs>
  <g>
    <path class="cls-3" d="M138.46,56.06l-14.45,7.2-14.1-9.38v-31.89L78.53,3.9l-31.37,18.09v31.98l-27.68,15.96v36.23l31.37,18.13,10.23-5.91,7.42-4.29,13.74-7.93v-31.95l24.02-13.85,14.56,9.64-.5,15.36h7.45l.5-15.93,13.93-6.93-3.73-6.44ZM102.46,53.95l-.04.03-3.75,2.17-20.15,11.62-23.93-13.82v-27.65l23.93-13.82,23.94,13.82v27.65Z"/>
    <path class="cls-2" d="M78.53,12.47l-23.93,13.82v27.65l23.93,13.82,20.15-11.62,3.75-2.17.04-.03v-27.65l-23.94-13.82ZM63.55,49.23h-4.96v-15.69h4.96v15.69ZM80.93,62.14l-2.48-4.3,13.59-7.84,2.49,4.29-13.6,7.85Z"/>
    <polygon class="cls-2" points="74.81 74.24 74.81 101.89 50.84 115.72 26.92 101.89 26.92 74.24 50.84 60.42 74.81 74.24"/>
    <g>
      <rect class="cls-3" x="56.45" y="65.54" width="4.96" height="15.69" transform="translate(-34.09 87.73) rotate(-60)"/>
      <rect class="cls-3" x="31.03" y="80.22" width="4.96" height="15.69"/>
      <rect class="cls-3" x="51.08" y="100.26" width="15.69" height="4.96" transform="translate(-43.47 43.22) rotate(-29.99)"/>
    </g>
    <g>
      <rect class="cls-3" x="58.59" y="33.54" width="4.96" height="15.69"/>
      <polygon class="cls-3" points="94.53 54.29 80.93 62.14 78.45 57.84 92.04 50 94.53 54.29"/>
    </g>
  </g>
  <g>
    <polygon class="cls-2" points="116.67 135.36 116.64 135.39 112.89 137.56 96.47 147.05 92.74 149.19 89.02 147.05 68.79 135.36 68.79 107.71 89.02 96.02 92.74 93.88 96.47 96.02 112.83 105.51 112.86 105.51 116.61 107.68 116.67 107.71 116.67 135.36"/>
    <g>
      <path class="cls-1" d="M124.12,107.74l14.34-7.35-1.77-3.24-1.8-3.27-14.43,7.42-23.99-13.86-.02-13.77h-7.45l.02,13.77-27.65,15.96v36.26l31.37,18.1,27.71-15.99,11.1,6.06,3.63-6.5-11.07-6.03v-27.56ZM116.67,135.36l-.03.03-3.75,2.17-16.42,9.49-3.72,2.14-3.72-2.14-20.23-11.69v-27.65l20.23-11.69,3.72-2.14,3.72,2.14,16.36,9.49h.03l3.75,2.17.06.03v27.65Z"/>
      <g>
        <rect class="cls-1" x="97.59" y="98.53" width="4.96" height="15.69" transform="translate(-42.09 139.85) rotate(-60)"/>
        <rect class="cls-1" x="72.17" y="113.2" width="4.96" height="15.69"/>
        <rect class="cls-1" x="92.22" y="133.25" width="15.69" height="4.96" transform="translate(-54.45 68.2) rotate(-29.99)"/>
      </g>
    </g>
  </g>
</svg>